%TF.GenerationSoftware,KiCad,Pcbnew,(5.1.8-0-10_14)*%
%TF.CreationDate,2020-12-30T16:32:28+01:00*%
%TF.ProjectId,Sensor-Board,53656e73-6f72-42d4-926f-6172642e6b69,1*%
%TF.SameCoordinates,Original*%
%TF.FileFunction,Copper,L1,Top*%
%TF.FilePolarity,Positive*%
%FSLAX46Y46*%
G04 Gerber Fmt 4.6, Leading zero omitted, Abs format (unit mm)*
G04 Created by KiCad (PCBNEW (5.1.8-0-10_14)) date 2020-12-30 16:32:28*
%MOMM*%
%LPD*%
G01*
G04 APERTURE LIST*
%TA.AperFunction,ComponentPad*%
%ADD10O,1.700000X1.700000*%
%TD*%
%TA.AperFunction,ComponentPad*%
%ADD11R,1.700000X1.700000*%
%TD*%
%TA.AperFunction,ComponentPad*%
%ADD12C,2.800000*%
%TD*%
%TA.AperFunction,ViaPad*%
%ADD13C,0.600000*%
%TD*%
%TA.AperFunction,Conductor*%
%ADD14C,0.127000*%
%TD*%
%TA.AperFunction,Conductor*%
%ADD15C,0.200000*%
%TD*%
%TA.AperFunction,Conductor*%
%ADD16C,0.250000*%
%TD*%
%TA.AperFunction,Conductor*%
%ADD17C,0.100000*%
%TD*%
G04 APERTURE END LIST*
D10*
%TO.P,J2,8*%
%TO.N,/~DRDY*%
X156350000Y-108890000D03*
%TO.P,J2,7*%
%TO.N,/~FAULT*%
X156350000Y-106350000D03*
%TO.P,J2,6*%
%TO.N,/~CS*%
X156350000Y-103810000D03*
%TO.P,J2,5*%
%TO.N,/SCLK*%
X156350000Y-101270000D03*
%TO.P,J2,4*%
%TO.N,/MISO*%
X156350000Y-98730000D03*
%TO.P,J2,3*%
%TO.N,/MOSI*%
X156350000Y-96190000D03*
%TO.P,J2,2*%
%TO.N,GND*%
X156350000Y-93650000D03*
D11*
%TO.P,J2,1*%
%TO.N,+3V3*%
X156350000Y-91110000D03*
%TD*%
D12*
%TO.P,J1,SH*%
%TO.N,GND*%
X132000000Y-107850000D03*
X132000000Y-92150000D03*
%TO.P,J1,2*%
%TO.N,Net-(J1-Pad2)*%
X145500000Y-106850000D03*
%TO.P,J1,1*%
%TO.N,Net-(J1-Pad1)*%
X145500000Y-93150000D03*
%TD*%
%TO.P,U1,14*%
%TO.N,GND*%
%TA.AperFunction,SMDPad,CuDef*%
G36*
G01*
X152125000Y-98150000D02*
X152125000Y-97950000D01*
G75*
G02*
X152225000Y-97850000I100000J0D01*
G01*
X153500000Y-97850000D01*
G75*
G02*
X153600000Y-97950000I0J-100000D01*
G01*
X153600000Y-98150000D01*
G75*
G02*
X153500000Y-98250000I-100000J0D01*
G01*
X152225000Y-98250000D01*
G75*
G02*
X152125000Y-98150000I0J100000D01*
G01*
G37*
%TD.AperFunction*%
%TO.P,U1,13*%
%TO.N,/~FAULT*%
%TA.AperFunction,SMDPad,CuDef*%
G36*
G01*
X152125000Y-98800000D02*
X152125000Y-98600000D01*
G75*
G02*
X152225000Y-98500000I100000J0D01*
G01*
X153500000Y-98500000D01*
G75*
G02*
X153600000Y-98600000I0J-100000D01*
G01*
X153600000Y-98800000D01*
G75*
G02*
X153500000Y-98900000I-100000J0D01*
G01*
X152225000Y-98900000D01*
G75*
G02*
X152125000Y-98800000I0J100000D01*
G01*
G37*
%TD.AperFunction*%
%TO.P,U1,12*%
%TO.N,/MOSI*%
%TA.AperFunction,SMDPad,CuDef*%
G36*
G01*
X152125000Y-99450000D02*
X152125000Y-99250000D01*
G75*
G02*
X152225000Y-99150000I100000J0D01*
G01*
X153500000Y-99150000D01*
G75*
G02*
X153600000Y-99250000I0J-100000D01*
G01*
X153600000Y-99450000D01*
G75*
G02*
X153500000Y-99550000I-100000J0D01*
G01*
X152225000Y-99550000D01*
G75*
G02*
X152125000Y-99450000I0J100000D01*
G01*
G37*
%TD.AperFunction*%
%TO.P,U1,11*%
%TO.N,/MISO*%
%TA.AperFunction,SMDPad,CuDef*%
G36*
G01*
X152125000Y-100100000D02*
X152125000Y-99900000D01*
G75*
G02*
X152225000Y-99800000I100000J0D01*
G01*
X153500000Y-99800000D01*
G75*
G02*
X153600000Y-99900000I0J-100000D01*
G01*
X153600000Y-100100000D01*
G75*
G02*
X153500000Y-100200000I-100000J0D01*
G01*
X152225000Y-100200000D01*
G75*
G02*
X152125000Y-100100000I0J100000D01*
G01*
G37*
%TD.AperFunction*%
%TO.P,U1,10*%
%TO.N,/SCLK*%
%TA.AperFunction,SMDPad,CuDef*%
G36*
G01*
X152125000Y-100750000D02*
X152125000Y-100550000D01*
G75*
G02*
X152225000Y-100450000I100000J0D01*
G01*
X153500000Y-100450000D01*
G75*
G02*
X153600000Y-100550000I0J-100000D01*
G01*
X153600000Y-100750000D01*
G75*
G02*
X153500000Y-100850000I-100000J0D01*
G01*
X152225000Y-100850000D01*
G75*
G02*
X152125000Y-100750000I0J100000D01*
G01*
G37*
%TD.AperFunction*%
%TO.P,U1,9*%
%TO.N,/~CS*%
%TA.AperFunction,SMDPad,CuDef*%
G36*
G01*
X152125000Y-101400000D02*
X152125000Y-101200000D01*
G75*
G02*
X152225000Y-101100000I100000J0D01*
G01*
X153500000Y-101100000D01*
G75*
G02*
X153600000Y-101200000I0J-100000D01*
G01*
X153600000Y-101400000D01*
G75*
G02*
X153500000Y-101500000I-100000J0D01*
G01*
X152225000Y-101500000D01*
G75*
G02*
X152125000Y-101400000I0J100000D01*
G01*
G37*
%TD.AperFunction*%
%TO.P,U1,8*%
%TO.N,+3V3*%
%TA.AperFunction,SMDPad,CuDef*%
G36*
G01*
X152125000Y-102050000D02*
X152125000Y-101850000D01*
G75*
G02*
X152225000Y-101750000I100000J0D01*
G01*
X153500000Y-101750000D01*
G75*
G02*
X153600000Y-101850000I0J-100000D01*
G01*
X153600000Y-102050000D01*
G75*
G02*
X153500000Y-102150000I-100000J0D01*
G01*
X152225000Y-102150000D01*
G75*
G02*
X152125000Y-102050000I0J100000D01*
G01*
G37*
%TD.AperFunction*%
%TO.P,U1,7*%
%TO.N,/~DRDY*%
%TA.AperFunction,SMDPad,CuDef*%
G36*
G01*
X146400000Y-102050000D02*
X146400000Y-101850000D01*
G75*
G02*
X146500000Y-101750000I100000J0D01*
G01*
X147775000Y-101750000D01*
G75*
G02*
X147875000Y-101850000I0J-100000D01*
G01*
X147875000Y-102050000D01*
G75*
G02*
X147775000Y-102150000I-100000J0D01*
G01*
X146500000Y-102150000D01*
G75*
G02*
X146400000Y-102050000I0J100000D01*
G01*
G37*
%TD.AperFunction*%
%TO.P,U1,6*%
%TO.N,Net-(U1-Pad6)*%
%TA.AperFunction,SMDPad,CuDef*%
G36*
G01*
X146400000Y-101400000D02*
X146400000Y-101200000D01*
G75*
G02*
X146500000Y-101100000I100000J0D01*
G01*
X147775000Y-101100000D01*
G75*
G02*
X147875000Y-101200000I0J-100000D01*
G01*
X147875000Y-101400000D01*
G75*
G02*
X147775000Y-101500000I-100000J0D01*
G01*
X146500000Y-101500000D01*
G75*
G02*
X146400000Y-101400000I0J100000D01*
G01*
G37*
%TD.AperFunction*%
%TO.P,U1,5*%
%TO.N,+3V3*%
%TA.AperFunction,SMDPad,CuDef*%
G36*
G01*
X146400000Y-100750000D02*
X146400000Y-100550000D01*
G75*
G02*
X146500000Y-100450000I100000J0D01*
G01*
X147775000Y-100450000D01*
G75*
G02*
X147875000Y-100550000I0J-100000D01*
G01*
X147875000Y-100750000D01*
G75*
G02*
X147775000Y-100850000I-100000J0D01*
G01*
X146500000Y-100850000D01*
G75*
G02*
X146400000Y-100750000I0J100000D01*
G01*
G37*
%TD.AperFunction*%
%TO.P,U1,4*%
%TO.N,Net-(C13-Pad2)*%
%TA.AperFunction,SMDPad,CuDef*%
G36*
G01*
X146400000Y-100100000D02*
X146400000Y-99900000D01*
G75*
G02*
X146500000Y-99800000I100000J0D01*
G01*
X147775000Y-99800000D01*
G75*
G02*
X147875000Y-99900000I0J-100000D01*
G01*
X147875000Y-100100000D01*
G75*
G02*
X147775000Y-100200000I-100000J0D01*
G01*
X146500000Y-100200000D01*
G75*
G02*
X146400000Y-100100000I0J100000D01*
G01*
G37*
%TD.AperFunction*%
%TO.P,U1,3*%
%TO.N,Net-(C14-Pad2)*%
%TA.AperFunction,SMDPad,CuDef*%
G36*
G01*
X146400000Y-99450000D02*
X146400000Y-99250000D01*
G75*
G02*
X146500000Y-99150000I100000J0D01*
G01*
X147775000Y-99150000D01*
G75*
G02*
X147875000Y-99250000I0J-100000D01*
G01*
X147875000Y-99450000D01*
G75*
G02*
X147775000Y-99550000I-100000J0D01*
G01*
X146500000Y-99550000D01*
G75*
G02*
X146400000Y-99450000I0J100000D01*
G01*
G37*
%TD.AperFunction*%
%TO.P,U1,2*%
%TO.N,Net-(R13-Pad2)*%
%TA.AperFunction,SMDPad,CuDef*%
G36*
G01*
X146400000Y-98800000D02*
X146400000Y-98600000D01*
G75*
G02*
X146500000Y-98500000I100000J0D01*
G01*
X147775000Y-98500000D01*
G75*
G02*
X147875000Y-98600000I0J-100000D01*
G01*
X147875000Y-98800000D01*
G75*
G02*
X147775000Y-98900000I-100000J0D01*
G01*
X146500000Y-98900000D01*
G75*
G02*
X146400000Y-98800000I0J100000D01*
G01*
G37*
%TD.AperFunction*%
%TO.P,U1,1*%
%TO.N,GND*%
%TA.AperFunction,SMDPad,CuDef*%
G36*
G01*
X146400000Y-98150000D02*
X146400000Y-97950000D01*
G75*
G02*
X146500000Y-97850000I100000J0D01*
G01*
X147775000Y-97850000D01*
G75*
G02*
X147875000Y-97950000I0J-100000D01*
G01*
X147875000Y-98150000D01*
G75*
G02*
X147775000Y-98250000I-100000J0D01*
G01*
X146500000Y-98250000D01*
G75*
G02*
X146400000Y-98150000I0J100000D01*
G01*
G37*
%TD.AperFunction*%
%TD*%
%TO.P,R14,2*%
%TO.N,Net-(D11-Pad2)*%
%TA.AperFunction,SMDPad,CuDef*%
G36*
G01*
X148350000Y-96256250D02*
X148350000Y-95743750D01*
G75*
G02*
X148568750Y-95525000I218750J0D01*
G01*
X149006250Y-95525000D01*
G75*
G02*
X149225000Y-95743750I0J-218750D01*
G01*
X149225000Y-96256250D01*
G75*
G02*
X149006250Y-96475000I-218750J0D01*
G01*
X148568750Y-96475000D01*
G75*
G02*
X148350000Y-96256250I0J218750D01*
G01*
G37*
%TD.AperFunction*%
%TO.P,R14,1*%
%TO.N,+3V3*%
%TA.AperFunction,SMDPad,CuDef*%
G36*
G01*
X146775000Y-96256250D02*
X146775000Y-95743750D01*
G75*
G02*
X146993750Y-95525000I218750J0D01*
G01*
X147431250Y-95525000D01*
G75*
G02*
X147650000Y-95743750I0J-218750D01*
G01*
X147650000Y-96256250D01*
G75*
G02*
X147431250Y-96475000I-218750J0D01*
G01*
X146993750Y-96475000D01*
G75*
G02*
X146775000Y-96256250I0J218750D01*
G01*
G37*
%TD.AperFunction*%
%TD*%
%TO.P,R13,2*%
%TO.N,Net-(R13-Pad2)*%
%TA.AperFunction,SMDPad,CuDef*%
G36*
G01*
X143256250Y-96150000D02*
X142743750Y-96150000D01*
G75*
G02*
X142525000Y-95931250I0J218750D01*
G01*
X142525000Y-95493750D01*
G75*
G02*
X142743750Y-95275000I218750J0D01*
G01*
X143256250Y-95275000D01*
G75*
G02*
X143475000Y-95493750I0J-218750D01*
G01*
X143475000Y-95931250D01*
G75*
G02*
X143256250Y-96150000I-218750J0D01*
G01*
G37*
%TD.AperFunction*%
%TO.P,R13,1*%
%TO.N,Net-(J1-Pad1)*%
%TA.AperFunction,SMDPad,CuDef*%
G36*
G01*
X143256250Y-97725000D02*
X142743750Y-97725000D01*
G75*
G02*
X142525000Y-97506250I0J218750D01*
G01*
X142525000Y-97068750D01*
G75*
G02*
X142743750Y-96850000I218750J0D01*
G01*
X143256250Y-96850000D01*
G75*
G02*
X143475000Y-97068750I0J-218750D01*
G01*
X143475000Y-97506250D01*
G75*
G02*
X143256250Y-97725000I-218750J0D01*
G01*
G37*
%TD.AperFunction*%
%TD*%
%TO.P,R12,2*%
%TO.N,Net-(C14-Pad2)*%
%TA.AperFunction,SMDPad,CuDef*%
G36*
G01*
X142743750Y-100350000D02*
X143256250Y-100350000D01*
G75*
G02*
X143475000Y-100568750I0J-218750D01*
G01*
X143475000Y-101006250D01*
G75*
G02*
X143256250Y-101225000I-218750J0D01*
G01*
X142743750Y-101225000D01*
G75*
G02*
X142525000Y-101006250I0J218750D01*
G01*
X142525000Y-100568750D01*
G75*
G02*
X142743750Y-100350000I218750J0D01*
G01*
G37*
%TD.AperFunction*%
%TO.P,R12,1*%
%TO.N,Net-(J1-Pad1)*%
%TA.AperFunction,SMDPad,CuDef*%
G36*
G01*
X142743750Y-98775000D02*
X143256250Y-98775000D01*
G75*
G02*
X143475000Y-98993750I0J-218750D01*
G01*
X143475000Y-99431250D01*
G75*
G02*
X143256250Y-99650000I-218750J0D01*
G01*
X142743750Y-99650000D01*
G75*
G02*
X142525000Y-99431250I0J218750D01*
G01*
X142525000Y-98993750D01*
G75*
G02*
X142743750Y-98775000I218750J0D01*
G01*
G37*
%TD.AperFunction*%
%TD*%
%TO.P,R11,2*%
%TO.N,Net-(C13-Pad2)*%
%TA.AperFunction,SMDPad,CuDef*%
G36*
G01*
X143256250Y-103150000D02*
X142743750Y-103150000D01*
G75*
G02*
X142525000Y-102931250I0J218750D01*
G01*
X142525000Y-102493750D01*
G75*
G02*
X142743750Y-102275000I218750J0D01*
G01*
X143256250Y-102275000D01*
G75*
G02*
X143475000Y-102493750I0J-218750D01*
G01*
X143475000Y-102931250D01*
G75*
G02*
X143256250Y-103150000I-218750J0D01*
G01*
G37*
%TD.AperFunction*%
%TO.P,R11,1*%
%TO.N,Net-(J1-Pad2)*%
%TA.AperFunction,SMDPad,CuDef*%
G36*
G01*
X143256250Y-104725000D02*
X142743750Y-104725000D01*
G75*
G02*
X142525000Y-104506250I0J218750D01*
G01*
X142525000Y-104068750D01*
G75*
G02*
X142743750Y-103850000I218750J0D01*
G01*
X143256250Y-103850000D01*
G75*
G02*
X143475000Y-104068750I0J-218750D01*
G01*
X143475000Y-104506250D01*
G75*
G02*
X143256250Y-104725000I-218750J0D01*
G01*
G37*
%TD.AperFunction*%
%TD*%
%TO.P,D11,2*%
%TO.N,Net-(D11-Pad2)*%
%TA.AperFunction,SMDPad,CuDef*%
G36*
G01*
X151150000Y-95743750D02*
X151150000Y-96256250D01*
G75*
G02*
X150931250Y-96475000I-218750J0D01*
G01*
X150493750Y-96475000D01*
G75*
G02*
X150275000Y-96256250I0J218750D01*
G01*
X150275000Y-95743750D01*
G75*
G02*
X150493750Y-95525000I218750J0D01*
G01*
X150931250Y-95525000D01*
G75*
G02*
X151150000Y-95743750I0J-218750D01*
G01*
G37*
%TD.AperFunction*%
%TO.P,D11,1*%
%TO.N,/~FAULT*%
%TA.AperFunction,SMDPad,CuDef*%
G36*
G01*
X152725000Y-95743750D02*
X152725000Y-96256250D01*
G75*
G02*
X152506250Y-96475000I-218750J0D01*
G01*
X152068750Y-96475000D01*
G75*
G02*
X151850000Y-96256250I0J218750D01*
G01*
X151850000Y-95743750D01*
G75*
G02*
X152068750Y-95525000I218750J0D01*
G01*
X152506250Y-95525000D01*
G75*
G02*
X152725000Y-95743750I0J-218750D01*
G01*
G37*
%TD.AperFunction*%
%TD*%
%TO.P,C15,2*%
%TO.N,GND*%
%TA.AperFunction,SMDPad,CuDef*%
G36*
G01*
X145256250Y-96150000D02*
X144743750Y-96150000D01*
G75*
G02*
X144525000Y-95931250I0J218750D01*
G01*
X144525000Y-95493750D01*
G75*
G02*
X144743750Y-95275000I218750J0D01*
G01*
X145256250Y-95275000D01*
G75*
G02*
X145475000Y-95493750I0J-218750D01*
G01*
X145475000Y-95931250D01*
G75*
G02*
X145256250Y-96150000I-218750J0D01*
G01*
G37*
%TD.AperFunction*%
%TO.P,C15,1*%
%TO.N,Net-(C14-Pad2)*%
%TA.AperFunction,SMDPad,CuDef*%
G36*
G01*
X145256250Y-97725000D02*
X144743750Y-97725000D01*
G75*
G02*
X144525000Y-97506250I0J218750D01*
G01*
X144525000Y-97068750D01*
G75*
G02*
X144743750Y-96850000I218750J0D01*
G01*
X145256250Y-96850000D01*
G75*
G02*
X145475000Y-97068750I0J-218750D01*
G01*
X145475000Y-97506250D01*
G75*
G02*
X145256250Y-97725000I-218750J0D01*
G01*
G37*
%TD.AperFunction*%
%TD*%
%TO.P,C14,2*%
%TO.N,Net-(C14-Pad2)*%
%TA.AperFunction,SMDPad,CuDef*%
G36*
G01*
X145256250Y-99650000D02*
X144743750Y-99650000D01*
G75*
G02*
X144525000Y-99431250I0J218750D01*
G01*
X144525000Y-98993750D01*
G75*
G02*
X144743750Y-98775000I218750J0D01*
G01*
X145256250Y-98775000D01*
G75*
G02*
X145475000Y-98993750I0J-218750D01*
G01*
X145475000Y-99431250D01*
G75*
G02*
X145256250Y-99650000I-218750J0D01*
G01*
G37*
%TD.AperFunction*%
%TO.P,C14,1*%
%TO.N,Net-(C13-Pad2)*%
%TA.AperFunction,SMDPad,CuDef*%
G36*
G01*
X145256250Y-101225000D02*
X144743750Y-101225000D01*
G75*
G02*
X144525000Y-101006250I0J218750D01*
G01*
X144525000Y-100568750D01*
G75*
G02*
X144743750Y-100350000I218750J0D01*
G01*
X145256250Y-100350000D01*
G75*
G02*
X145475000Y-100568750I0J-218750D01*
G01*
X145475000Y-101006250D01*
G75*
G02*
X145256250Y-101225000I-218750J0D01*
G01*
G37*
%TD.AperFunction*%
%TD*%
%TO.P,C13,2*%
%TO.N,Net-(C13-Pad2)*%
%TA.AperFunction,SMDPad,CuDef*%
G36*
G01*
X145256250Y-103150000D02*
X144743750Y-103150000D01*
G75*
G02*
X144525000Y-102931250I0J218750D01*
G01*
X144525000Y-102493750D01*
G75*
G02*
X144743750Y-102275000I218750J0D01*
G01*
X145256250Y-102275000D01*
G75*
G02*
X145475000Y-102493750I0J-218750D01*
G01*
X145475000Y-102931250D01*
G75*
G02*
X145256250Y-103150000I-218750J0D01*
G01*
G37*
%TD.AperFunction*%
%TO.P,C13,1*%
%TO.N,GND*%
%TA.AperFunction,SMDPad,CuDef*%
G36*
G01*
X145256250Y-104725000D02*
X144743750Y-104725000D01*
G75*
G02*
X144525000Y-104506250I0J218750D01*
G01*
X144525000Y-104068750D01*
G75*
G02*
X144743750Y-103850000I218750J0D01*
G01*
X145256250Y-103850000D01*
G75*
G02*
X145475000Y-104068750I0J-218750D01*
G01*
X145475000Y-104506250D01*
G75*
G02*
X145256250Y-104725000I-218750J0D01*
G01*
G37*
%TD.AperFunction*%
%TD*%
%TO.P,C12,2*%
%TO.N,GND*%
%TA.AperFunction,SMDPad,CuDef*%
G36*
G01*
X151150000Y-103743750D02*
X151150000Y-104256250D01*
G75*
G02*
X150931250Y-104475000I-218750J0D01*
G01*
X150493750Y-104475000D01*
G75*
G02*
X150275000Y-104256250I0J218750D01*
G01*
X150275000Y-103743750D01*
G75*
G02*
X150493750Y-103525000I218750J0D01*
G01*
X150931250Y-103525000D01*
G75*
G02*
X151150000Y-103743750I0J-218750D01*
G01*
G37*
%TD.AperFunction*%
%TO.P,C12,1*%
%TO.N,+3V3*%
%TA.AperFunction,SMDPad,CuDef*%
G36*
G01*
X152725000Y-103743750D02*
X152725000Y-104256250D01*
G75*
G02*
X152506250Y-104475000I-218750J0D01*
G01*
X152068750Y-104475000D01*
G75*
G02*
X151850000Y-104256250I0J218750D01*
G01*
X151850000Y-103743750D01*
G75*
G02*
X152068750Y-103525000I218750J0D01*
G01*
X152506250Y-103525000D01*
G75*
G02*
X152725000Y-103743750I0J-218750D01*
G01*
G37*
%TD.AperFunction*%
%TD*%
%TO.P,C11,2*%
%TO.N,GND*%
%TA.AperFunction,SMDPad,CuDef*%
G36*
G01*
X148350000Y-104256250D02*
X148350000Y-103743750D01*
G75*
G02*
X148568750Y-103525000I218750J0D01*
G01*
X149006250Y-103525000D01*
G75*
G02*
X149225000Y-103743750I0J-218750D01*
G01*
X149225000Y-104256250D01*
G75*
G02*
X149006250Y-104475000I-218750J0D01*
G01*
X148568750Y-104475000D01*
G75*
G02*
X148350000Y-104256250I0J218750D01*
G01*
G37*
%TD.AperFunction*%
%TO.P,C11,1*%
%TO.N,+3V3*%
%TA.AperFunction,SMDPad,CuDef*%
G36*
G01*
X146775000Y-104256250D02*
X146775000Y-103743750D01*
G75*
G02*
X146993750Y-103525000I218750J0D01*
G01*
X147431250Y-103525000D01*
G75*
G02*
X147650000Y-103743750I0J-218750D01*
G01*
X147650000Y-104256250D01*
G75*
G02*
X147431250Y-104475000I-218750J0D01*
G01*
X146993750Y-104475000D01*
G75*
G02*
X146775000Y-104256250I0J218750D01*
G01*
G37*
%TD.AperFunction*%
%TD*%
D13*
%TO.N,GND*%
X143968750Y-104287500D03*
X154127500Y-98095000D03*
X148412500Y-98095000D03*
X146030000Y-95712500D03*
X149713750Y-104000000D03*
%TD*%
D14*
%TO.N,GND*%
X148787500Y-104000000D02*
X150603750Y-104000000D01*
X150603750Y-104000000D02*
X150635000Y-103968750D01*
D15*
X150762500Y-104000000D02*
X150731250Y-103968750D01*
X150731250Y-103968750D02*
X150793750Y-103968750D01*
D16*
X145000000Y-104287500D02*
X143968750Y-104287500D01*
X150635000Y-103968750D02*
X150793750Y-103968750D01*
X154082500Y-98050000D02*
X154127500Y-98095000D01*
X152862500Y-98050000D02*
X154082500Y-98050000D01*
X148367500Y-98050000D02*
X148412500Y-98095000D01*
X147137500Y-98050000D02*
X148367500Y-98050000D01*
X145000000Y-95712500D02*
X146030000Y-95712500D01*
X150712500Y-104000000D02*
X149713750Y-104000000D01*
D15*
X149713750Y-104000000D02*
X150762500Y-104000000D01*
X148787500Y-104000000D02*
X149713750Y-104000000D01*
D16*
%TO.N,Net-(J1-Pad2)*%
X143000000Y-104287500D02*
X143000000Y-106462000D01*
X143000000Y-106462000D02*
X143396000Y-106858000D01*
X143396000Y-106858000D02*
X145428000Y-106858000D01*
%TO.N,Net-(J1-Pad1)*%
X143000000Y-99212500D02*
X143000000Y-98750000D01*
X143000000Y-98750000D02*
X143000000Y-97250000D01*
X143000000Y-97287500D02*
X142969500Y-97287500D01*
X142969500Y-97287500D02*
X142126000Y-96444000D01*
X142126000Y-96444000D02*
X142126000Y-93650000D01*
X142126000Y-93650000D02*
X142634000Y-93142000D01*
X142634000Y-93142000D02*
X145428000Y-93142000D01*
%TO.N,+3V3*%
X147137500Y-100650000D02*
X146302000Y-100650000D01*
X146302000Y-100650000D02*
X145936000Y-101016000D01*
X145936000Y-101016000D02*
X145936000Y-103810000D01*
X146126000Y-104000000D02*
X145936000Y-103810000D01*
X147212500Y-104000000D02*
X146126000Y-104000000D01*
X152862500Y-101950000D02*
X153728000Y-101950000D01*
X153728000Y-101950000D02*
X154064000Y-102286000D01*
X154064000Y-102286000D02*
X154064000Y-103810000D01*
X153874000Y-104000000D02*
X154064000Y-103810000D01*
X152287500Y-104000000D02*
X153874000Y-104000000D01*
X147212500Y-96000000D02*
X147212500Y-95167500D01*
X152287500Y-104000000D02*
X152287500Y-104192500D01*
X152287500Y-104192500D02*
X155715000Y-107620000D01*
X158413750Y-107461250D02*
X158413750Y-91427500D01*
X158413750Y-91427500D02*
X158096250Y-91110000D01*
X158096250Y-91110000D02*
X156350000Y-91110000D01*
X156350000Y-91110000D02*
X156032500Y-91110000D01*
X147212500Y-104000000D02*
X147212500Y-109753750D01*
X147212500Y-109753750D02*
X147618750Y-110160000D01*
X158413750Y-109842500D02*
X158096250Y-110160000D01*
X147618750Y-110160000D02*
X158096250Y-110160000D01*
X158096250Y-107620000D02*
X158413750Y-107620000D01*
X158413750Y-107620000D02*
X158413750Y-107461250D01*
X158413750Y-109842500D02*
X158413750Y-107620000D01*
X155715000Y-107620000D02*
X158096250Y-107620000D01*
X151905000Y-94285000D02*
X155080000Y-91110000D01*
X148095000Y-94285000D02*
X151905000Y-94285000D01*
X155080000Y-91110000D02*
X156350000Y-91110000D01*
X147212500Y-95167500D02*
X148095000Y-94285000D01*
%TO.N,/~FAULT*%
X152862500Y-98700000D02*
X151808000Y-98700000D01*
X151808000Y-98700000D02*
X151799990Y-98708010D01*
X156350000Y-106350000D02*
X157620000Y-106350000D01*
X157620000Y-106350000D02*
X157874000Y-106096000D01*
X157874000Y-106096000D02*
X157874000Y-95428000D01*
X157874000Y-95428000D02*
X157366000Y-94920000D01*
X157366000Y-94920000D02*
X152540000Y-94920000D01*
X152540000Y-94920000D02*
X152286000Y-95174000D01*
X152286000Y-95174000D02*
X152286000Y-95936000D01*
X151799990Y-98708010D02*
X151799990Y-97692010D01*
X151799990Y-97692010D02*
X152286000Y-97206000D01*
X152286000Y-97206000D02*
X152286000Y-95936000D01*
%TO.N,/MOSI*%
X152862500Y-99350000D02*
X154714000Y-99350000D01*
X154714000Y-99350000D02*
X155080000Y-98984000D01*
X155080000Y-98984000D02*
X155080000Y-96444000D01*
X155080000Y-96444000D02*
X155334000Y-96190000D01*
X155334000Y-96190000D02*
X156350000Y-96190000D01*
%TO.N,/MISO*%
X152862500Y-100000000D02*
X155080000Y-100000000D01*
X155080000Y-100000000D02*
X156350000Y-98730000D01*
%TO.N,/SCLK*%
X152862500Y-100650000D02*
X155730000Y-100650000D01*
X155730000Y-100650000D02*
X156350000Y-101270000D01*
%TO.N,/~CS*%
X155080000Y-103556000D02*
X155334000Y-103810000D01*
X155334000Y-103810000D02*
X156350000Y-103810000D01*
X154602000Y-101300000D02*
X155080000Y-101778000D01*
X155080000Y-101778000D02*
X155080000Y-103556000D01*
X152862500Y-101300000D02*
X154602000Y-101300000D01*
%TO.N,/~DRDY*%
X156350000Y-108890000D02*
X156350000Y-108636000D01*
X151524000Y-104480494D02*
X155933506Y-108890000D01*
X148750000Y-103000000D02*
X148976000Y-103226000D01*
X148750000Y-102250000D02*
X148750000Y-103000000D01*
X151524000Y-103524000D02*
X151524000Y-104480494D01*
X148450000Y-101950000D02*
X148750000Y-102250000D01*
X155933506Y-108890000D02*
X156350000Y-108890000D01*
X151226000Y-103226000D02*
X151524000Y-103524000D01*
X148976000Y-103226000D02*
X151226000Y-103226000D01*
X147137500Y-101950000D02*
X148450000Y-101950000D01*
%TO.N,Net-(C13-Pad2)*%
X145000000Y-102712500D02*
X145000000Y-101000000D01*
X145000000Y-101000000D02*
X145000000Y-100750000D01*
X145000000Y-102712500D02*
X144787500Y-102712500D01*
X144787500Y-102712500D02*
X144750000Y-102750000D01*
X144750000Y-102750000D02*
X143000000Y-102750000D01*
X145000000Y-100787500D02*
X145462500Y-100787500D01*
X145462500Y-100787500D02*
X146250000Y-100000000D01*
X147137500Y-100000000D02*
X146250000Y-100000000D01*
D15*
X143000000Y-102712500D02*
X144906250Y-102712500D01*
X144906250Y-102712500D02*
X144920000Y-102698750D01*
D16*
%TO.N,Net-(C14-Pad2)*%
X143000000Y-100787500D02*
X143212500Y-100787500D01*
X143000000Y-100787500D02*
X143712500Y-100787500D01*
X143712500Y-100787500D02*
X144000000Y-100500000D01*
X144000000Y-100500000D02*
X144000000Y-99500000D01*
X145000000Y-99212500D02*
X144287500Y-99212500D01*
X144287500Y-99212500D02*
X144000000Y-99500000D01*
X145000000Y-99212500D02*
X145000000Y-98250000D01*
X145000000Y-98250000D02*
X145000000Y-97250000D01*
X145962500Y-99212500D02*
X146100000Y-99350000D01*
X146100000Y-99350000D02*
X147137500Y-99350000D01*
X145000000Y-99212500D02*
X145962500Y-99212500D01*
%TO.N,Net-(D11-Pad2)*%
X148787500Y-96000000D02*
X150750000Y-96000000D01*
%TO.N,Net-(R13-Pad2)*%
X144325000Y-96500000D02*
X143537500Y-95712500D01*
X145750000Y-96500000D02*
X144325000Y-96500000D01*
X146000000Y-96750000D02*
X145750000Y-96500000D01*
X143537500Y-95712500D02*
X143000000Y-95712500D01*
X146000000Y-98500000D02*
X146000000Y-96750000D01*
X146200000Y-98700000D02*
X146000000Y-98500000D01*
X147137500Y-98700000D02*
X146200000Y-98700000D01*
%TD*%
D14*
%TO.N,+3V3*%
X135094598Y-89370837D02*
X135101052Y-89401201D01*
X135107082Y-89431652D01*
X135108496Y-89436220D01*
X135202915Y-89733868D01*
X135215129Y-89762365D01*
X135226973Y-89791101D01*
X135229248Y-89795308D01*
X135379683Y-90068948D01*
X135397193Y-90094521D01*
X135414400Y-90120418D01*
X135417448Y-90124102D01*
X135618169Y-90363312D01*
X135640349Y-90385032D01*
X135662221Y-90407057D01*
X135665927Y-90410079D01*
X135909287Y-90605746D01*
X135935245Y-90622733D01*
X135960998Y-90640103D01*
X135965220Y-90642348D01*
X136241950Y-90787019D01*
X136270718Y-90798642D01*
X136299349Y-90810677D01*
X136303927Y-90812059D01*
X136603488Y-90900225D01*
X136633954Y-90906037D01*
X136664389Y-90912284D01*
X136669147Y-90912750D01*
X136669149Y-90912750D01*
X136980129Y-90941051D01*
X137011132Y-90940835D01*
X137042212Y-90941052D01*
X137046971Y-90940585D01*
X137357527Y-90907944D01*
X137387942Y-90901700D01*
X137418427Y-90895885D01*
X137423005Y-90894503D01*
X137721305Y-90802164D01*
X137749895Y-90790146D01*
X137778704Y-90778506D01*
X137782926Y-90776261D01*
X138057611Y-90627739D01*
X138083346Y-90610381D01*
X138109321Y-90593383D01*
X138113027Y-90590361D01*
X138353631Y-90391316D01*
X138375487Y-90369307D01*
X138397684Y-90347570D01*
X138400732Y-90343885D01*
X138469146Y-90260000D01*
X155180964Y-90260000D01*
X155182500Y-90840125D01*
X155261875Y-90919500D01*
X156159500Y-90919500D01*
X156159500Y-90021875D01*
X156540500Y-90021875D01*
X156540500Y-90919500D01*
X157438125Y-90919500D01*
X157517500Y-90840125D01*
X157519036Y-90260000D01*
X157512906Y-90197759D01*
X157494751Y-90137910D01*
X157465269Y-90082753D01*
X157425593Y-90034407D01*
X157377247Y-89994731D01*
X157322090Y-89965249D01*
X157262241Y-89947094D01*
X157200000Y-89940964D01*
X156619875Y-89942500D01*
X156540500Y-90021875D01*
X156159500Y-90021875D01*
X156080125Y-89942500D01*
X155500000Y-89940964D01*
X155437759Y-89947094D01*
X155377910Y-89965249D01*
X155322753Y-89994731D01*
X155274407Y-90034407D01*
X155234731Y-90082753D01*
X155205249Y-90137910D01*
X155187094Y-90197759D01*
X155180964Y-90260000D01*
X138469146Y-90260000D01*
X138598093Y-90101896D01*
X138615258Y-90076060D01*
X138632809Y-90050427D01*
X138635083Y-90046221D01*
X138781683Y-89770507D01*
X138793502Y-89741832D01*
X138805742Y-89713274D01*
X138807156Y-89708706D01*
X138897410Y-89409768D01*
X138903432Y-89379356D01*
X138909894Y-89348953D01*
X138910393Y-89344197D01*
X138910559Y-89342500D01*
X165983253Y-89342500D01*
X166127388Y-89356633D01*
X166249926Y-89393629D01*
X166362948Y-89453724D01*
X166462140Y-89534622D01*
X166543731Y-89633249D01*
X166604610Y-89745844D01*
X166642461Y-89868121D01*
X166657501Y-90011210D01*
X166657500Y-109983253D01*
X166643367Y-110127388D01*
X166606371Y-110249926D01*
X166546275Y-110362950D01*
X166465378Y-110462140D01*
X166366754Y-110543729D01*
X166254156Y-110604610D01*
X166131879Y-110642461D01*
X165988799Y-110657500D01*
X138908581Y-110657500D01*
X138905402Y-110629163D01*
X138898954Y-110598829D01*
X138892919Y-110568348D01*
X138891504Y-110563780D01*
X138797085Y-110266132D01*
X138784877Y-110237648D01*
X138773027Y-110208898D01*
X138770752Y-110204692D01*
X138620317Y-109931052D01*
X138602804Y-109905475D01*
X138585601Y-109879582D01*
X138582552Y-109875898D01*
X138381831Y-109636689D01*
X138359687Y-109615004D01*
X138337779Y-109592943D01*
X138334073Y-109589921D01*
X138090713Y-109394254D01*
X138064803Y-109377299D01*
X138039003Y-109359897D01*
X138034780Y-109357652D01*
X137758050Y-109212981D01*
X137729296Y-109201364D01*
X137700652Y-109189323D01*
X137696073Y-109187941D01*
X137396512Y-109099775D01*
X137366038Y-109093962D01*
X137335610Y-109087716D01*
X137330853Y-109087250D01*
X137330851Y-109087250D01*
X137019871Y-109058949D01*
X136988868Y-109059165D01*
X136957788Y-109058948D01*
X136953029Y-109059415D01*
X136642474Y-109092056D01*
X136612065Y-109098298D01*
X136581573Y-109104115D01*
X136576995Y-109105497D01*
X136278695Y-109197836D01*
X136250093Y-109209859D01*
X136221296Y-109221494D01*
X136217074Y-109223739D01*
X135942390Y-109372260D01*
X135916687Y-109389597D01*
X135890679Y-109406616D01*
X135886974Y-109409639D01*
X135646369Y-109608684D01*
X135624530Y-109630676D01*
X135602316Y-109652430D01*
X135599268Y-109656115D01*
X135401907Y-109898104D01*
X135384754Y-109923922D01*
X135367191Y-109949572D01*
X135364917Y-109953779D01*
X135218317Y-110229492D01*
X135206517Y-110258120D01*
X135194257Y-110286726D01*
X135192844Y-110291295D01*
X135102590Y-110590232D01*
X135096581Y-110620583D01*
X135090106Y-110651047D01*
X135089607Y-110655803D01*
X135089441Y-110657500D01*
X130016747Y-110657500D01*
X129872612Y-110643367D01*
X129750074Y-110606371D01*
X129637050Y-110546275D01*
X129537860Y-110465378D01*
X129456271Y-110366754D01*
X129395390Y-110254156D01*
X129357539Y-110131879D01*
X129342500Y-109988799D01*
X129342500Y-107680841D01*
X130282500Y-107680841D01*
X130282500Y-108019159D01*
X130348503Y-108350976D01*
X130477971Y-108663541D01*
X130665931Y-108944842D01*
X130905158Y-109184069D01*
X131186459Y-109372029D01*
X131499024Y-109501497D01*
X131830841Y-109567500D01*
X132169159Y-109567500D01*
X132500976Y-109501497D01*
X132813541Y-109372029D01*
X133094842Y-109184069D01*
X133334069Y-108944842D01*
X133522029Y-108663541D01*
X133651497Y-108350976D01*
X133717500Y-108019159D01*
X133717500Y-107680841D01*
X133651497Y-107349024D01*
X133522029Y-107036459D01*
X133334069Y-106755158D01*
X133094842Y-106515931D01*
X132813541Y-106327971D01*
X132500976Y-106198503D01*
X132169159Y-106132500D01*
X131830841Y-106132500D01*
X131499024Y-106198503D01*
X131186459Y-106327971D01*
X130905158Y-106515931D01*
X130665931Y-106755158D01*
X130477971Y-107036459D01*
X130348503Y-107349024D01*
X130282500Y-107680841D01*
X129342500Y-107680841D01*
X129342500Y-91980841D01*
X130282500Y-91980841D01*
X130282500Y-92319159D01*
X130348503Y-92650976D01*
X130477971Y-92963541D01*
X130665931Y-93244842D01*
X130905158Y-93484069D01*
X131186459Y-93672029D01*
X131499024Y-93801497D01*
X131830841Y-93867500D01*
X132169159Y-93867500D01*
X132500976Y-93801497D01*
X132813541Y-93672029D01*
X132846509Y-93650000D01*
X141681359Y-93650000D01*
X141683501Y-93671744D01*
X141683500Y-96422263D01*
X141681359Y-96444000D01*
X141683500Y-96465734D01*
X141683500Y-96465736D01*
X141689903Y-96530744D01*
X141704797Y-96579843D01*
X141715205Y-96614156D01*
X141756295Y-96691029D01*
X141774429Y-96713125D01*
X141811591Y-96758409D01*
X141828480Y-96772269D01*
X142205964Y-97149753D01*
X142205964Y-97506250D01*
X142216297Y-97611167D01*
X142246901Y-97712052D01*
X142296597Y-97805028D01*
X142363478Y-97886522D01*
X142444972Y-97953403D01*
X142537948Y-98003099D01*
X142557500Y-98009030D01*
X142557500Y-98490970D01*
X142537948Y-98496901D01*
X142444972Y-98546597D01*
X142363478Y-98613478D01*
X142296597Y-98694972D01*
X142246901Y-98787948D01*
X142216297Y-98888833D01*
X142205964Y-98993750D01*
X142205964Y-99431250D01*
X142216297Y-99536167D01*
X142246901Y-99637052D01*
X142296597Y-99730028D01*
X142363478Y-99811522D01*
X142444972Y-99878403D01*
X142537948Y-99928099D01*
X142638833Y-99958703D01*
X142743750Y-99969036D01*
X143256250Y-99969036D01*
X143361167Y-99958703D01*
X143462052Y-99928099D01*
X143555028Y-99878403D01*
X143557501Y-99876374D01*
X143557500Y-100123626D01*
X143555028Y-100121597D01*
X143462052Y-100071901D01*
X143361167Y-100041297D01*
X143256250Y-100030964D01*
X142743750Y-100030964D01*
X142638833Y-100041297D01*
X142537948Y-100071901D01*
X142444972Y-100121597D01*
X142363478Y-100188478D01*
X142296597Y-100269972D01*
X142246901Y-100362948D01*
X142216297Y-100463833D01*
X142205964Y-100568750D01*
X142205964Y-101006250D01*
X142216297Y-101111167D01*
X142246901Y-101212052D01*
X142296597Y-101305028D01*
X142363478Y-101386522D01*
X142444972Y-101453403D01*
X142537948Y-101503099D01*
X142638833Y-101533703D01*
X142743750Y-101544036D01*
X143256250Y-101544036D01*
X143361167Y-101533703D01*
X143462052Y-101503099D01*
X143555028Y-101453403D01*
X143636522Y-101386522D01*
X143703403Y-101305028D01*
X143744021Y-101229036D01*
X143799245Y-101223597D01*
X143882657Y-101198295D01*
X143959529Y-101157205D01*
X144026909Y-101101909D01*
X144040770Y-101085019D01*
X144205964Y-100919824D01*
X144205964Y-101006250D01*
X144216297Y-101111167D01*
X144246901Y-101212052D01*
X144296597Y-101305028D01*
X144363478Y-101386522D01*
X144444972Y-101453403D01*
X144537948Y-101503099D01*
X144557501Y-101509030D01*
X144557500Y-101990970D01*
X144537948Y-101996901D01*
X144444972Y-102046597D01*
X144363478Y-102113478D01*
X144296597Y-102194972D01*
X144246901Y-102287948D01*
X144244762Y-102295000D01*
X143755238Y-102295000D01*
X143753099Y-102287948D01*
X143703403Y-102194972D01*
X143636522Y-102113478D01*
X143555028Y-102046597D01*
X143462052Y-101996901D01*
X143361167Y-101966297D01*
X143256250Y-101955964D01*
X142743750Y-101955964D01*
X142638833Y-101966297D01*
X142537948Y-101996901D01*
X142444972Y-102046597D01*
X142363478Y-102113478D01*
X142296597Y-102194972D01*
X142246901Y-102287948D01*
X142216297Y-102388833D01*
X142205964Y-102493750D01*
X142205964Y-102931250D01*
X142216297Y-103036167D01*
X142246901Y-103137052D01*
X142296597Y-103230028D01*
X142363478Y-103311522D01*
X142444972Y-103378403D01*
X142537948Y-103428099D01*
X142638833Y-103458703D01*
X142743750Y-103469036D01*
X143256250Y-103469036D01*
X143361167Y-103458703D01*
X143462052Y-103428099D01*
X143555028Y-103378403D01*
X143636522Y-103311522D01*
X143703403Y-103230028D01*
X143723462Y-103192500D01*
X144276538Y-103192500D01*
X144296597Y-103230028D01*
X144363478Y-103311522D01*
X144444972Y-103378403D01*
X144537948Y-103428099D01*
X144638833Y-103458703D01*
X144743750Y-103469036D01*
X144936500Y-103469036D01*
X144936500Y-103530964D01*
X144743750Y-103530964D01*
X144638833Y-103541297D01*
X144537948Y-103571901D01*
X144444972Y-103621597D01*
X144363478Y-103688478D01*
X144299816Y-103766050D01*
X144261246Y-103740278D01*
X144148868Y-103693730D01*
X144029568Y-103670000D01*
X143907932Y-103670000D01*
X143788632Y-103693730D01*
X143678328Y-103739419D01*
X143636522Y-103688478D01*
X143555028Y-103621597D01*
X143462052Y-103571901D01*
X143361167Y-103541297D01*
X143256250Y-103530964D01*
X142743750Y-103530964D01*
X142638833Y-103541297D01*
X142537948Y-103571901D01*
X142444972Y-103621597D01*
X142363478Y-103688478D01*
X142296597Y-103769972D01*
X142246901Y-103862948D01*
X142216297Y-103963833D01*
X142205964Y-104068750D01*
X142205964Y-104506250D01*
X142216297Y-104611167D01*
X142246901Y-104712052D01*
X142296597Y-104805028D01*
X142363478Y-104886522D01*
X142444972Y-104953403D01*
X142537948Y-105003099D01*
X142557500Y-105009030D01*
X142557501Y-106440256D01*
X142555359Y-106462000D01*
X142563904Y-106548745D01*
X142589205Y-106632156D01*
X142630295Y-106709029D01*
X142639057Y-106719705D01*
X142685592Y-106776409D01*
X142702476Y-106790265D01*
X143067735Y-107155525D01*
X143081591Y-107172409D01*
X143098475Y-107186265D01*
X143148971Y-107227705D01*
X143225843Y-107268795D01*
X143309255Y-107294097D01*
X143396000Y-107302641D01*
X143417737Y-107300500D01*
X143838463Y-107300500D01*
X143848503Y-107350976D01*
X143977971Y-107663541D01*
X144165931Y-107944842D01*
X144405158Y-108184069D01*
X144686459Y-108372029D01*
X144999024Y-108501497D01*
X145330841Y-108567500D01*
X145669159Y-108567500D01*
X146000976Y-108501497D01*
X146313541Y-108372029D01*
X146594842Y-108184069D01*
X146834069Y-107944842D01*
X146906951Y-107835766D01*
X149332500Y-107835766D01*
X149332500Y-108164234D01*
X149396581Y-108486392D01*
X149522281Y-108789857D01*
X149704768Y-109062969D01*
X149937031Y-109295232D01*
X150210143Y-109477719D01*
X150513608Y-109603419D01*
X150835766Y-109667500D01*
X151164234Y-109667500D01*
X151486392Y-109603419D01*
X151789857Y-109477719D01*
X152062969Y-109295232D01*
X152295232Y-109062969D01*
X152477719Y-108789857D01*
X152603419Y-108486392D01*
X152667500Y-108164234D01*
X152667500Y-107835766D01*
X152603419Y-107513608D01*
X152477719Y-107210143D01*
X152295232Y-106937031D01*
X152062969Y-106704768D01*
X151789857Y-106522281D01*
X151486392Y-106396581D01*
X151164234Y-106332500D01*
X150835766Y-106332500D01*
X150513608Y-106396581D01*
X150210143Y-106522281D01*
X149937031Y-106704768D01*
X149704768Y-106937031D01*
X149522281Y-107210143D01*
X149396581Y-107513608D01*
X149332500Y-107835766D01*
X146906951Y-107835766D01*
X147022029Y-107663541D01*
X147151497Y-107350976D01*
X147217500Y-107019159D01*
X147217500Y-106680841D01*
X147151497Y-106349024D01*
X147022029Y-106036459D01*
X146834069Y-105755158D01*
X146642411Y-105563500D01*
X147000000Y-105563500D01*
X147012388Y-105562280D01*
X147024300Y-105558666D01*
X147035279Y-105552798D01*
X147044901Y-105544901D01*
X147052798Y-105535279D01*
X147058666Y-105524300D01*
X147062280Y-105512388D01*
X147063500Y-105500000D01*
X147063500Y-105000000D01*
X147062280Y-104987612D01*
X147058666Y-104975700D01*
X147052798Y-104964721D01*
X147044901Y-104955099D01*
X147035279Y-104947202D01*
X147024300Y-104941334D01*
X147012388Y-104937720D01*
X147000000Y-104936500D01*
X145575624Y-104936500D01*
X145636522Y-104886522D01*
X145703403Y-104805028D01*
X145753099Y-104712052D01*
X145783703Y-104611167D01*
X145794036Y-104506250D01*
X145794036Y-104475000D01*
X146455964Y-104475000D01*
X146462094Y-104537241D01*
X146480249Y-104597090D01*
X146509731Y-104652247D01*
X146549407Y-104700593D01*
X146597753Y-104740269D01*
X146652910Y-104769751D01*
X146712759Y-104787906D01*
X146775000Y-104794036D01*
X146942625Y-104792500D01*
X147022000Y-104713125D01*
X147022000Y-104190500D01*
X146536875Y-104190500D01*
X146457500Y-104269875D01*
X146455964Y-104475000D01*
X145794036Y-104475000D01*
X145794036Y-104068750D01*
X145783703Y-103963833D01*
X145753099Y-103862948D01*
X145703403Y-103769972D01*
X145636522Y-103688478D01*
X145563500Y-103628550D01*
X145563500Y-103525000D01*
X146455964Y-103525000D01*
X146457500Y-103730125D01*
X146536875Y-103809500D01*
X147022000Y-103809500D01*
X147022000Y-103286875D01*
X146942625Y-103207500D01*
X146775000Y-103205964D01*
X146712759Y-103212094D01*
X146652910Y-103230249D01*
X146597753Y-103259731D01*
X146549407Y-103299407D01*
X146509731Y-103347753D01*
X146480249Y-103402910D01*
X146462094Y-103462759D01*
X146455964Y-103525000D01*
X145563500Y-103525000D01*
X145563500Y-103371450D01*
X145636522Y-103311522D01*
X145703403Y-103230028D01*
X145753099Y-103137052D01*
X145783703Y-103036167D01*
X145794036Y-102931250D01*
X145794036Y-102493750D01*
X145783703Y-102388833D01*
X145753099Y-102287948D01*
X145703403Y-102194972D01*
X145636522Y-102113478D01*
X145563500Y-102053550D01*
X145563500Y-101446450D01*
X145636522Y-101386522D01*
X145703403Y-101305028D01*
X145753099Y-101212052D01*
X145783703Y-101111167D01*
X145785666Y-101091239D01*
X145790769Y-101085020D01*
X146082500Y-100793290D01*
X146082500Y-100840502D01*
X146107873Y-100840502D01*
X146082500Y-100865875D01*
X146087658Y-100915009D01*
X146106342Y-100974695D01*
X146127177Y-101012858D01*
X146112861Y-101039642D01*
X146089016Y-101118250D01*
X146080964Y-101200000D01*
X146080964Y-101400000D01*
X146089016Y-101481750D01*
X146112861Y-101560358D01*
X146147413Y-101625000D01*
X146112861Y-101689642D01*
X146089016Y-101768250D01*
X146080964Y-101850000D01*
X146080964Y-102050000D01*
X146089016Y-102131750D01*
X146112861Y-102210358D01*
X146151584Y-102282804D01*
X146203697Y-102346303D01*
X146267196Y-102398416D01*
X146339642Y-102437139D01*
X146418250Y-102460984D01*
X146500000Y-102469036D01*
X147775000Y-102469036D01*
X147856750Y-102460984D01*
X147935358Y-102437139D01*
X147936500Y-102436529D01*
X147936500Y-103387473D01*
X147915269Y-103347753D01*
X147875593Y-103299407D01*
X147827247Y-103259731D01*
X147772090Y-103230249D01*
X147712241Y-103212094D01*
X147650000Y-103205964D01*
X147482375Y-103207500D01*
X147403000Y-103286875D01*
X147403000Y-103809500D01*
X147423000Y-103809500D01*
X147423000Y-104190500D01*
X147403000Y-104190500D01*
X147403000Y-104713125D01*
X147482375Y-104792500D01*
X147650000Y-104794036D01*
X147712241Y-104787906D01*
X147772090Y-104769751D01*
X147827247Y-104740269D01*
X147875593Y-104700593D01*
X147915269Y-104652247D01*
X147936500Y-104612527D01*
X147936500Y-104936500D01*
X147500000Y-104936500D01*
X147487612Y-104937720D01*
X147475700Y-104941334D01*
X147464721Y-104947202D01*
X147455099Y-104955099D01*
X147447202Y-104964721D01*
X147441334Y-104975700D01*
X147437720Y-104987612D01*
X147436500Y-105000000D01*
X147436500Y-105500000D01*
X147437720Y-105512388D01*
X147441334Y-105524300D01*
X147447202Y-105535279D01*
X147455099Y-105544901D01*
X147464721Y-105552798D01*
X147475700Y-105558666D01*
X147487612Y-105562280D01*
X147500000Y-105563500D01*
X148500000Y-105563500D01*
X148512388Y-105562280D01*
X148524300Y-105558666D01*
X148535279Y-105552798D01*
X148544901Y-105544901D01*
X148552798Y-105535279D01*
X148558666Y-105524300D01*
X148562280Y-105512388D01*
X148563500Y-105500000D01*
X148563500Y-104793519D01*
X148568750Y-104794036D01*
X149006250Y-104794036D01*
X149111167Y-104783703D01*
X149212052Y-104753099D01*
X149305028Y-104703403D01*
X149386522Y-104636522D01*
X149450028Y-104559140D01*
X149533632Y-104593770D01*
X149652932Y-104617500D01*
X149774568Y-104617500D01*
X149893868Y-104593770D01*
X150006246Y-104547222D01*
X150032904Y-104529410D01*
X150046597Y-104555028D01*
X150113478Y-104636522D01*
X150194972Y-104703403D01*
X150287948Y-104753099D01*
X150388833Y-104783703D01*
X150493750Y-104794036D01*
X150931250Y-104794036D01*
X151036167Y-104783703D01*
X151137052Y-104753099D01*
X151163627Y-104738894D01*
X151195735Y-104778018D01*
X151209592Y-104794903D01*
X151226476Y-104808759D01*
X155184197Y-108766480D01*
X155182500Y-108775011D01*
X155182500Y-109004989D01*
X155227366Y-109230547D01*
X155315375Y-109443019D01*
X155443144Y-109634238D01*
X155605762Y-109796856D01*
X155796981Y-109924625D01*
X156009453Y-110012634D01*
X156235011Y-110057500D01*
X156464989Y-110057500D01*
X156690547Y-110012634D01*
X156903019Y-109924625D01*
X157094238Y-109796856D01*
X157256856Y-109634238D01*
X157384625Y-109443019D01*
X157472634Y-109230547D01*
X157517500Y-109004989D01*
X157517500Y-108775011D01*
X157472634Y-108549453D01*
X157384625Y-108336981D01*
X157256856Y-108145762D01*
X157094238Y-107983144D01*
X156903019Y-107855375D01*
X156690547Y-107767366D01*
X156464989Y-107722500D01*
X156235011Y-107722500D01*
X156009453Y-107767366D01*
X155796981Y-107855375D01*
X155633743Y-107964448D01*
X152461795Y-104792500D01*
X152478002Y-104792500D01*
X152478002Y-104713127D01*
X152557375Y-104792500D01*
X152725000Y-104794036D01*
X152787241Y-104787906D01*
X152847090Y-104769751D01*
X152902247Y-104740269D01*
X152950593Y-104700593D01*
X152990269Y-104652247D01*
X153019751Y-104597090D01*
X153037906Y-104537241D01*
X153044036Y-104475000D01*
X153042500Y-104269875D01*
X152963125Y-104190500D01*
X152478000Y-104190500D01*
X152478000Y-104210500D01*
X152097000Y-104210500D01*
X152097000Y-104190500D01*
X152077000Y-104190500D01*
X152077000Y-103809500D01*
X152097000Y-103809500D01*
X152097000Y-103286875D01*
X152478000Y-103286875D01*
X152478000Y-103809500D01*
X152963125Y-103809500D01*
X153042500Y-103730125D01*
X153044036Y-103525000D01*
X153037906Y-103462759D01*
X153019751Y-103402910D01*
X152990269Y-103347753D01*
X152950593Y-103299407D01*
X152902247Y-103259731D01*
X152847090Y-103230249D01*
X152787241Y-103212094D01*
X152725000Y-103205964D01*
X152557375Y-103207500D01*
X152478000Y-103286875D01*
X152097000Y-103286875D01*
X152017625Y-103207500D01*
X151850000Y-103205964D01*
X151835705Y-103207372D01*
X151821526Y-103195736D01*
X151554269Y-102928480D01*
X151540409Y-102911591D01*
X151473029Y-102856295D01*
X151396157Y-102815205D01*
X151312745Y-102789903D01*
X151247737Y-102783500D01*
X151247734Y-102783500D01*
X151226000Y-102781359D01*
X151204266Y-102783500D01*
X149192500Y-102783500D01*
X149192500Y-102271733D01*
X149194641Y-102249999D01*
X149191946Y-102222641D01*
X149186356Y-102165875D01*
X151807500Y-102165875D01*
X151812658Y-102215009D01*
X151831342Y-102274695D01*
X151861311Y-102329589D01*
X151901414Y-102377582D01*
X151950109Y-102416828D01*
X152005525Y-102445820D01*
X152065533Y-102463445D01*
X152127825Y-102469023D01*
X152592625Y-102467500D01*
X152672000Y-102388125D01*
X152672000Y-102086500D01*
X153053000Y-102086500D01*
X153053000Y-102388125D01*
X153132375Y-102467500D01*
X153597175Y-102469023D01*
X153659467Y-102463445D01*
X153719475Y-102445820D01*
X153774891Y-102416828D01*
X153823586Y-102377582D01*
X153863689Y-102329589D01*
X153893658Y-102274695D01*
X153912342Y-102215009D01*
X153917500Y-102165875D01*
X153838125Y-102086500D01*
X153053000Y-102086500D01*
X152672000Y-102086500D01*
X151886875Y-102086500D01*
X151807500Y-102165875D01*
X149186356Y-102165875D01*
X149186097Y-102163255D01*
X149160795Y-102079843D01*
X149131496Y-102025029D01*
X149119705Y-102002970D01*
X149078265Y-101952475D01*
X149064409Y-101935591D01*
X149047526Y-101921736D01*
X148778269Y-101652480D01*
X148764409Y-101635591D01*
X148697029Y-101580295D01*
X148620157Y-101539205D01*
X148563500Y-101522019D01*
X148563500Y-99250000D01*
X148562280Y-99237612D01*
X148558666Y-99225700D01*
X148552798Y-99214721D01*
X148544901Y-99205099D01*
X148535279Y-99197202D01*
X148524300Y-99191334D01*
X148512388Y-99187720D01*
X148500000Y-99186500D01*
X148187782Y-99186500D01*
X148185984Y-99168250D01*
X148162139Y-99089642D01*
X148127587Y-99025000D01*
X148162139Y-98960358D01*
X148185984Y-98881750D01*
X148194036Y-98800000D01*
X148194036Y-98672887D01*
X148232382Y-98688770D01*
X148351682Y-98712500D01*
X148473318Y-98712500D01*
X148592618Y-98688770D01*
X148704996Y-98642222D01*
X148806133Y-98574644D01*
X148892144Y-98488633D01*
X148959722Y-98387496D01*
X149006270Y-98275118D01*
X149030000Y-98155818D01*
X149030000Y-98034182D01*
X149006270Y-97914882D01*
X148959722Y-97802504D01*
X148892144Y-97701367D01*
X148882787Y-97692010D01*
X151355349Y-97692010D01*
X151357491Y-97713754D01*
X151357490Y-98686275D01*
X151355349Y-98708010D01*
X151357490Y-98729744D01*
X151357490Y-98729746D01*
X151363893Y-98794754D01*
X151386765Y-98870156D01*
X151389195Y-98878166D01*
X151430285Y-98955039D01*
X151447466Y-98975974D01*
X151485581Y-99022419D01*
X151552961Y-99077715D01*
X151629833Y-99118805D01*
X151713245Y-99144107D01*
X151799990Y-99152651D01*
X151819326Y-99150747D01*
X151814016Y-99168250D01*
X151805964Y-99250000D01*
X151805964Y-99450000D01*
X151814016Y-99531750D01*
X151837861Y-99610358D01*
X151872413Y-99675000D01*
X151837861Y-99739642D01*
X151814016Y-99818250D01*
X151805964Y-99900000D01*
X151805964Y-100100000D01*
X151814016Y-100181750D01*
X151837861Y-100260358D01*
X151872413Y-100325000D01*
X151837861Y-100389642D01*
X151814016Y-100468250D01*
X151805964Y-100550000D01*
X151805964Y-100750000D01*
X151814016Y-100831750D01*
X151837861Y-100910358D01*
X151872413Y-100975000D01*
X151837861Y-101039642D01*
X151814016Y-101118250D01*
X151805964Y-101200000D01*
X151805964Y-101400000D01*
X151814016Y-101481750D01*
X151837861Y-101560358D01*
X151852177Y-101587142D01*
X151831342Y-101625305D01*
X151812658Y-101684991D01*
X151807500Y-101734125D01*
X151886875Y-101813500D01*
X152168794Y-101813500D01*
X152225000Y-101819036D01*
X153500000Y-101819036D01*
X153556206Y-101813500D01*
X153838125Y-101813500D01*
X153909125Y-101742500D01*
X154418711Y-101742500D01*
X154637500Y-101961290D01*
X154637501Y-103534256D01*
X154635359Y-103556000D01*
X154643904Y-103642745D01*
X154669205Y-103726156D01*
X154710295Y-103803029D01*
X154750702Y-103852265D01*
X154765592Y-103870409D01*
X154782477Y-103884266D01*
X155005726Y-104107514D01*
X155019591Y-104124409D01*
X155086971Y-104179705D01*
X155163843Y-104220795D01*
X155247255Y-104246097D01*
X155267782Y-104248119D01*
X155315375Y-104363019D01*
X155443144Y-104554238D01*
X155605762Y-104716856D01*
X155796981Y-104844625D01*
X156009453Y-104932634D01*
X156235011Y-104977500D01*
X156464989Y-104977500D01*
X156690547Y-104932634D01*
X156903019Y-104844625D01*
X157094238Y-104716856D01*
X157256856Y-104554238D01*
X157384625Y-104363019D01*
X157431500Y-104249853D01*
X157431500Y-105907500D01*
X157430404Y-105907500D01*
X157384625Y-105796981D01*
X157256856Y-105605762D01*
X157094238Y-105443144D01*
X156903019Y-105315375D01*
X156690547Y-105227366D01*
X156464989Y-105182500D01*
X156235011Y-105182500D01*
X156009453Y-105227366D01*
X155796981Y-105315375D01*
X155605762Y-105443144D01*
X155443144Y-105605762D01*
X155315375Y-105796981D01*
X155227366Y-106009453D01*
X155182500Y-106235011D01*
X155182500Y-106464989D01*
X155227366Y-106690547D01*
X155315375Y-106903019D01*
X155443144Y-107094238D01*
X155605762Y-107256856D01*
X155796981Y-107384625D01*
X156009453Y-107472634D01*
X156235011Y-107517500D01*
X156464989Y-107517500D01*
X156690547Y-107472634D01*
X156903019Y-107384625D01*
X157094238Y-107256856D01*
X157256856Y-107094238D01*
X157384625Y-106903019D01*
X157430404Y-106792500D01*
X157598266Y-106792500D01*
X157620000Y-106794641D01*
X157641734Y-106792500D01*
X157641737Y-106792500D01*
X157706745Y-106786097D01*
X157790157Y-106760795D01*
X157867029Y-106719705D01*
X157934409Y-106664409D01*
X157948270Y-106647519D01*
X158171516Y-106424273D01*
X158188409Y-106410409D01*
X158243705Y-106343029D01*
X158284795Y-106266157D01*
X158310097Y-106182745D01*
X158316500Y-106117737D01*
X158316500Y-106117735D01*
X158318641Y-106096001D01*
X158316500Y-106074267D01*
X158316500Y-95449733D01*
X158318641Y-95427999D01*
X158314330Y-95384235D01*
X158310097Y-95341255D01*
X158284795Y-95257843D01*
X158243705Y-95180971D01*
X158188409Y-95113591D01*
X158171519Y-95099730D01*
X157694270Y-94622481D01*
X157680409Y-94605591D01*
X157613029Y-94550295D01*
X157536157Y-94509205D01*
X157452745Y-94483903D01*
X157387737Y-94477500D01*
X157387734Y-94477500D01*
X157366000Y-94475359D01*
X157344266Y-94477500D01*
X157173594Y-94477500D01*
X157256856Y-94394238D01*
X157384625Y-94203019D01*
X157472634Y-93990547D01*
X157517500Y-93764989D01*
X157517500Y-93535011D01*
X157472634Y-93309453D01*
X157384625Y-93096981D01*
X157256856Y-92905762D01*
X157094238Y-92743144D01*
X156903019Y-92615375D01*
X156690547Y-92527366D01*
X156464989Y-92482500D01*
X156235011Y-92482500D01*
X156009453Y-92527366D01*
X155796981Y-92615375D01*
X155605762Y-92743144D01*
X155443144Y-92905762D01*
X155315375Y-93096981D01*
X155227366Y-93309453D01*
X155182500Y-93535011D01*
X155182500Y-93764989D01*
X155227366Y-93990547D01*
X155315375Y-94203019D01*
X155443144Y-94394238D01*
X155526406Y-94477500D01*
X152561733Y-94477500D01*
X152539999Y-94475359D01*
X152518265Y-94477500D01*
X152518263Y-94477500D01*
X152453255Y-94483903D01*
X152369843Y-94509205D01*
X152292971Y-94550295D01*
X152225591Y-94605591D01*
X152211726Y-94622486D01*
X151988481Y-94845730D01*
X151971591Y-94859591D01*
X151939889Y-94898221D01*
X151916295Y-94926971D01*
X151900798Y-94955964D01*
X151875205Y-95003844D01*
X151849903Y-95087256D01*
X151843500Y-95152263D01*
X151841359Y-95174000D01*
X151843500Y-95195735D01*
X151843500Y-95257296D01*
X151769972Y-95296597D01*
X151688478Y-95363478D01*
X151621597Y-95444972D01*
X151571901Y-95537948D01*
X151541297Y-95638833D01*
X151530964Y-95743750D01*
X151530964Y-96256250D01*
X151541297Y-96361167D01*
X151571901Y-96462052D01*
X151621597Y-96555028D01*
X151688478Y-96636522D01*
X151769972Y-96703403D01*
X151843500Y-96742704D01*
X151843500Y-97022710D01*
X151502466Y-97363745D01*
X151485582Y-97377601D01*
X151471726Y-97394485D01*
X151471725Y-97394486D01*
X151430285Y-97444981D01*
X151389195Y-97521854D01*
X151363894Y-97605265D01*
X151355349Y-97692010D01*
X148882787Y-97692010D01*
X148806133Y-97615356D01*
X148704996Y-97547778D01*
X148592618Y-97501230D01*
X148473318Y-97477500D01*
X148351682Y-97477500D01*
X148232382Y-97501230D01*
X148120004Y-97547778D01*
X148030624Y-97607500D01*
X148015013Y-97607500D01*
X148007804Y-97601584D01*
X147935358Y-97562861D01*
X147856750Y-97539016D01*
X147775000Y-97530964D01*
X146500000Y-97530964D01*
X146442500Y-97536627D01*
X146442500Y-96771733D01*
X146444641Y-96749999D01*
X146440051Y-96703403D01*
X146436097Y-96663255D01*
X146410795Y-96579843D01*
X146369705Y-96502971D01*
X146314409Y-96435591D01*
X146297514Y-96421726D01*
X146186714Y-96310925D01*
X146210118Y-96306270D01*
X146322496Y-96259722D01*
X146423633Y-96192144D01*
X146457500Y-96158277D01*
X146457500Y-96190502D01*
X146536873Y-96190502D01*
X146457500Y-96269875D01*
X146455964Y-96475000D01*
X146462094Y-96537241D01*
X146480249Y-96597090D01*
X146509731Y-96652247D01*
X146549407Y-96700593D01*
X146597753Y-96740269D01*
X146652910Y-96769751D01*
X146712759Y-96787906D01*
X146775000Y-96794036D01*
X146942625Y-96792500D01*
X147022000Y-96713125D01*
X147022000Y-96190500D01*
X147403000Y-96190500D01*
X147403000Y-96713125D01*
X147482375Y-96792500D01*
X147650000Y-96794036D01*
X147712241Y-96787906D01*
X147772090Y-96769751D01*
X147827247Y-96740269D01*
X147875593Y-96700593D01*
X147915269Y-96652247D01*
X147944751Y-96597090D01*
X147962906Y-96537241D01*
X147969036Y-96475000D01*
X147967500Y-96269875D01*
X147888125Y-96190500D01*
X147403000Y-96190500D01*
X147022000Y-96190500D01*
X147002000Y-96190500D01*
X147002000Y-95809500D01*
X147022000Y-95809500D01*
X147022000Y-95286875D01*
X147403000Y-95286875D01*
X147403000Y-95809500D01*
X147888125Y-95809500D01*
X147953875Y-95743750D01*
X148030964Y-95743750D01*
X148030964Y-96256250D01*
X148041297Y-96361167D01*
X148071901Y-96462052D01*
X148121597Y-96555028D01*
X148188478Y-96636522D01*
X148269972Y-96703403D01*
X148362948Y-96753099D01*
X148463833Y-96783703D01*
X148568750Y-96794036D01*
X149006250Y-96794036D01*
X149111167Y-96783703D01*
X149212052Y-96753099D01*
X149305028Y-96703403D01*
X149386522Y-96636522D01*
X149453403Y-96555028D01*
X149503099Y-96462052D01*
X149509030Y-96442500D01*
X149990970Y-96442500D01*
X149996901Y-96462052D01*
X150046597Y-96555028D01*
X150113478Y-96636522D01*
X150194972Y-96703403D01*
X150287948Y-96753099D01*
X150388833Y-96783703D01*
X150493750Y-96794036D01*
X150931250Y-96794036D01*
X151036167Y-96783703D01*
X151137052Y-96753099D01*
X151230028Y-96703403D01*
X151311522Y-96636522D01*
X151378403Y-96555028D01*
X151428099Y-96462052D01*
X151458703Y-96361167D01*
X151469036Y-96256250D01*
X151469036Y-95743750D01*
X151458703Y-95638833D01*
X151428099Y-95537948D01*
X151378403Y-95444972D01*
X151311522Y-95363478D01*
X151230028Y-95296597D01*
X151137052Y-95246901D01*
X151036167Y-95216297D01*
X150931250Y-95205964D01*
X150493750Y-95205964D01*
X150388833Y-95216297D01*
X150287948Y-95246901D01*
X150194972Y-95296597D01*
X150113478Y-95363478D01*
X150046597Y-95444972D01*
X149996901Y-95537948D01*
X149990970Y-95557500D01*
X149509030Y-95557500D01*
X149503099Y-95537948D01*
X149453403Y-95444972D01*
X149386522Y-95363478D01*
X149305028Y-95296597D01*
X149212052Y-95246901D01*
X149111167Y-95216297D01*
X149006250Y-95205964D01*
X148568750Y-95205964D01*
X148463833Y-95216297D01*
X148362948Y-95246901D01*
X148269972Y-95296597D01*
X148188478Y-95363478D01*
X148121597Y-95444972D01*
X148071901Y-95537948D01*
X148041297Y-95638833D01*
X148030964Y-95743750D01*
X147953875Y-95743750D01*
X147967500Y-95730125D01*
X147969036Y-95525000D01*
X147962906Y-95462759D01*
X147944751Y-95402910D01*
X147915269Y-95347753D01*
X147875593Y-95299407D01*
X147827247Y-95259731D01*
X147772090Y-95230249D01*
X147712241Y-95212094D01*
X147650000Y-95205964D01*
X147482375Y-95207500D01*
X147403000Y-95286875D01*
X147022000Y-95286875D01*
X146942625Y-95207500D01*
X146775000Y-95205964D01*
X146712759Y-95212094D01*
X146652910Y-95230249D01*
X146597753Y-95259731D01*
X146549407Y-95299407D01*
X146520322Y-95334848D01*
X146509644Y-95318867D01*
X146423633Y-95232856D01*
X146322496Y-95165278D01*
X146210118Y-95118730D01*
X146090818Y-95095000D01*
X145969182Y-95095000D01*
X145849882Y-95118730D01*
X145737504Y-95165278D01*
X145699741Y-95190510D01*
X145636522Y-95113478D01*
X145555028Y-95046597D01*
X145462052Y-94996901D01*
X145361167Y-94966297D01*
X145256250Y-94955964D01*
X144743750Y-94955964D01*
X144638833Y-94966297D01*
X144537948Y-94996901D01*
X144444972Y-95046597D01*
X144363478Y-95113478D01*
X144296597Y-95194972D01*
X144246901Y-95287948D01*
X144216297Y-95388833D01*
X144205964Y-95493750D01*
X144205964Y-95755175D01*
X143865769Y-95414980D01*
X143851909Y-95398091D01*
X143784529Y-95342795D01*
X143766874Y-95333358D01*
X143753099Y-95287948D01*
X143703403Y-95194972D01*
X143636522Y-95113478D01*
X143555028Y-95046597D01*
X143462052Y-94996901D01*
X143361167Y-94966297D01*
X143256250Y-94955964D01*
X142743750Y-94955964D01*
X142638833Y-94966297D01*
X142568500Y-94987633D01*
X142568500Y-93833289D01*
X142817289Y-93584500D01*
X143835280Y-93584500D01*
X143848503Y-93650976D01*
X143977971Y-93963541D01*
X144165931Y-94244842D01*
X144405158Y-94484069D01*
X144686459Y-94672029D01*
X144999024Y-94801497D01*
X145330841Y-94867500D01*
X145669159Y-94867500D01*
X146000976Y-94801497D01*
X146313541Y-94672029D01*
X146594842Y-94484069D01*
X146834069Y-94244842D01*
X147022029Y-93963541D01*
X147151497Y-93650976D01*
X147217500Y-93319159D01*
X147217500Y-92980841D01*
X147151497Y-92649024D01*
X147022029Y-92336459D01*
X146834069Y-92055158D01*
X146614677Y-91835766D01*
X149332500Y-91835766D01*
X149332500Y-92164234D01*
X149396581Y-92486392D01*
X149522281Y-92789857D01*
X149704768Y-93062969D01*
X149937031Y-93295232D01*
X150210143Y-93477719D01*
X150513608Y-93603419D01*
X150835766Y-93667500D01*
X151164234Y-93667500D01*
X151486392Y-93603419D01*
X151789857Y-93477719D01*
X152062969Y-93295232D01*
X152295232Y-93062969D01*
X152477719Y-92789857D01*
X152603419Y-92486392D01*
X152667500Y-92164234D01*
X152667500Y-91960000D01*
X155180964Y-91960000D01*
X155187094Y-92022241D01*
X155205249Y-92082090D01*
X155234731Y-92137247D01*
X155274407Y-92185593D01*
X155322753Y-92225269D01*
X155377910Y-92254751D01*
X155437759Y-92272906D01*
X155500000Y-92279036D01*
X156080125Y-92277500D01*
X156159500Y-92198125D01*
X156159500Y-91300500D01*
X156540500Y-91300500D01*
X156540500Y-92198125D01*
X156619875Y-92277500D01*
X157200000Y-92279036D01*
X157262241Y-92272906D01*
X157322090Y-92254751D01*
X157377247Y-92225269D01*
X157425593Y-92185593D01*
X157465269Y-92137247D01*
X157494751Y-92082090D01*
X157512906Y-92022241D01*
X157519036Y-91960000D01*
X157517500Y-91379875D01*
X157438125Y-91300500D01*
X156540500Y-91300500D01*
X156159500Y-91300500D01*
X155261875Y-91300500D01*
X155182500Y-91379875D01*
X155180964Y-91960000D01*
X152667500Y-91960000D01*
X152667500Y-91835766D01*
X152603419Y-91513608D01*
X152477719Y-91210143D01*
X152295232Y-90937031D01*
X152062969Y-90704768D01*
X151789857Y-90522281D01*
X151486392Y-90396581D01*
X151164234Y-90332500D01*
X150835766Y-90332500D01*
X150513608Y-90396581D01*
X150210143Y-90522281D01*
X149937031Y-90704768D01*
X149704768Y-90937031D01*
X149522281Y-91210143D01*
X149396581Y-91513608D01*
X149332500Y-91835766D01*
X146614677Y-91835766D01*
X146594842Y-91815931D01*
X146313541Y-91627971D01*
X146000976Y-91498503D01*
X145669159Y-91432500D01*
X145330841Y-91432500D01*
X144999024Y-91498503D01*
X144686459Y-91627971D01*
X144405158Y-91815931D01*
X144165931Y-92055158D01*
X143977971Y-92336459D01*
X143848503Y-92649024D01*
X143838463Y-92699500D01*
X142655733Y-92699500D01*
X142633999Y-92697359D01*
X142612265Y-92699500D01*
X142612263Y-92699500D01*
X142547255Y-92705903D01*
X142463843Y-92731205D01*
X142386971Y-92772295D01*
X142319591Y-92827591D01*
X142305730Y-92844481D01*
X141828476Y-93321735D01*
X141811592Y-93335591D01*
X141797736Y-93352475D01*
X141797735Y-93352476D01*
X141756295Y-93402971D01*
X141715205Y-93479844D01*
X141689904Y-93563255D01*
X141681359Y-93650000D01*
X132846509Y-93650000D01*
X133094842Y-93484069D01*
X133334069Y-93244842D01*
X133522029Y-92963541D01*
X133651497Y-92650976D01*
X133717500Y-92319159D01*
X133717500Y-91980841D01*
X133651497Y-91649024D01*
X133522029Y-91336459D01*
X133334069Y-91055158D01*
X133094842Y-90815931D01*
X132813541Y-90627971D01*
X132500976Y-90498503D01*
X132169159Y-90432500D01*
X131830841Y-90432500D01*
X131499024Y-90498503D01*
X131186459Y-90627971D01*
X130905158Y-90815931D01*
X130665931Y-91055158D01*
X130477971Y-91336459D01*
X130348503Y-91649024D01*
X130282500Y-91980841D01*
X129342500Y-91980841D01*
X129342500Y-90016747D01*
X129356633Y-89872612D01*
X129393629Y-89750074D01*
X129453724Y-89637052D01*
X129534622Y-89537860D01*
X129633249Y-89456269D01*
X129745844Y-89395390D01*
X129868121Y-89357539D01*
X130011201Y-89342500D01*
X135091419Y-89342500D01*
X135094598Y-89370837D01*
%TA.AperFunction,Conductor*%
D17*
G36*
X135094598Y-89370837D02*
G01*
X135101052Y-89401201D01*
X135107082Y-89431652D01*
X135108496Y-89436220D01*
X135202915Y-89733868D01*
X135215129Y-89762365D01*
X135226973Y-89791101D01*
X135229248Y-89795308D01*
X135379683Y-90068948D01*
X135397193Y-90094521D01*
X135414400Y-90120418D01*
X135417448Y-90124102D01*
X135618169Y-90363312D01*
X135640349Y-90385032D01*
X135662221Y-90407057D01*
X135665927Y-90410079D01*
X135909287Y-90605746D01*
X135935245Y-90622733D01*
X135960998Y-90640103D01*
X135965220Y-90642348D01*
X136241950Y-90787019D01*
X136270718Y-90798642D01*
X136299349Y-90810677D01*
X136303927Y-90812059D01*
X136603488Y-90900225D01*
X136633954Y-90906037D01*
X136664389Y-90912284D01*
X136669147Y-90912750D01*
X136669149Y-90912750D01*
X136980129Y-90941051D01*
X137011132Y-90940835D01*
X137042212Y-90941052D01*
X137046971Y-90940585D01*
X137357527Y-90907944D01*
X137387942Y-90901700D01*
X137418427Y-90895885D01*
X137423005Y-90894503D01*
X137721305Y-90802164D01*
X137749895Y-90790146D01*
X137778704Y-90778506D01*
X137782926Y-90776261D01*
X138057611Y-90627739D01*
X138083346Y-90610381D01*
X138109321Y-90593383D01*
X138113027Y-90590361D01*
X138353631Y-90391316D01*
X138375487Y-90369307D01*
X138397684Y-90347570D01*
X138400732Y-90343885D01*
X138469146Y-90260000D01*
X155180964Y-90260000D01*
X155182500Y-90840125D01*
X155261875Y-90919500D01*
X156159500Y-90919500D01*
X156159500Y-90021875D01*
X156540500Y-90021875D01*
X156540500Y-90919500D01*
X157438125Y-90919500D01*
X157517500Y-90840125D01*
X157519036Y-90260000D01*
X157512906Y-90197759D01*
X157494751Y-90137910D01*
X157465269Y-90082753D01*
X157425593Y-90034407D01*
X157377247Y-89994731D01*
X157322090Y-89965249D01*
X157262241Y-89947094D01*
X157200000Y-89940964D01*
X156619875Y-89942500D01*
X156540500Y-90021875D01*
X156159500Y-90021875D01*
X156080125Y-89942500D01*
X155500000Y-89940964D01*
X155437759Y-89947094D01*
X155377910Y-89965249D01*
X155322753Y-89994731D01*
X155274407Y-90034407D01*
X155234731Y-90082753D01*
X155205249Y-90137910D01*
X155187094Y-90197759D01*
X155180964Y-90260000D01*
X138469146Y-90260000D01*
X138598093Y-90101896D01*
X138615258Y-90076060D01*
X138632809Y-90050427D01*
X138635083Y-90046221D01*
X138781683Y-89770507D01*
X138793502Y-89741832D01*
X138805742Y-89713274D01*
X138807156Y-89708706D01*
X138897410Y-89409768D01*
X138903432Y-89379356D01*
X138909894Y-89348953D01*
X138910393Y-89344197D01*
X138910559Y-89342500D01*
X165983253Y-89342500D01*
X166127388Y-89356633D01*
X166249926Y-89393629D01*
X166362948Y-89453724D01*
X166462140Y-89534622D01*
X166543731Y-89633249D01*
X166604610Y-89745844D01*
X166642461Y-89868121D01*
X166657501Y-90011210D01*
X166657500Y-109983253D01*
X166643367Y-110127388D01*
X166606371Y-110249926D01*
X166546275Y-110362950D01*
X166465378Y-110462140D01*
X166366754Y-110543729D01*
X166254156Y-110604610D01*
X166131879Y-110642461D01*
X165988799Y-110657500D01*
X138908581Y-110657500D01*
X138905402Y-110629163D01*
X138898954Y-110598829D01*
X138892919Y-110568348D01*
X138891504Y-110563780D01*
X138797085Y-110266132D01*
X138784877Y-110237648D01*
X138773027Y-110208898D01*
X138770752Y-110204692D01*
X138620317Y-109931052D01*
X138602804Y-109905475D01*
X138585601Y-109879582D01*
X138582552Y-109875898D01*
X138381831Y-109636689D01*
X138359687Y-109615004D01*
X138337779Y-109592943D01*
X138334073Y-109589921D01*
X138090713Y-109394254D01*
X138064803Y-109377299D01*
X138039003Y-109359897D01*
X138034780Y-109357652D01*
X137758050Y-109212981D01*
X137729296Y-109201364D01*
X137700652Y-109189323D01*
X137696073Y-109187941D01*
X137396512Y-109099775D01*
X137366038Y-109093962D01*
X137335610Y-109087716D01*
X137330853Y-109087250D01*
X137330851Y-109087250D01*
X137019871Y-109058949D01*
X136988868Y-109059165D01*
X136957788Y-109058948D01*
X136953029Y-109059415D01*
X136642474Y-109092056D01*
X136612065Y-109098298D01*
X136581573Y-109104115D01*
X136576995Y-109105497D01*
X136278695Y-109197836D01*
X136250093Y-109209859D01*
X136221296Y-109221494D01*
X136217074Y-109223739D01*
X135942390Y-109372260D01*
X135916687Y-109389597D01*
X135890679Y-109406616D01*
X135886974Y-109409639D01*
X135646369Y-109608684D01*
X135624530Y-109630676D01*
X135602316Y-109652430D01*
X135599268Y-109656115D01*
X135401907Y-109898104D01*
X135384754Y-109923922D01*
X135367191Y-109949572D01*
X135364917Y-109953779D01*
X135218317Y-110229492D01*
X135206517Y-110258120D01*
X135194257Y-110286726D01*
X135192844Y-110291295D01*
X135102590Y-110590232D01*
X135096581Y-110620583D01*
X135090106Y-110651047D01*
X135089607Y-110655803D01*
X135089441Y-110657500D01*
X130016747Y-110657500D01*
X129872612Y-110643367D01*
X129750074Y-110606371D01*
X129637050Y-110546275D01*
X129537860Y-110465378D01*
X129456271Y-110366754D01*
X129395390Y-110254156D01*
X129357539Y-110131879D01*
X129342500Y-109988799D01*
X129342500Y-107680841D01*
X130282500Y-107680841D01*
X130282500Y-108019159D01*
X130348503Y-108350976D01*
X130477971Y-108663541D01*
X130665931Y-108944842D01*
X130905158Y-109184069D01*
X131186459Y-109372029D01*
X131499024Y-109501497D01*
X131830841Y-109567500D01*
X132169159Y-109567500D01*
X132500976Y-109501497D01*
X132813541Y-109372029D01*
X133094842Y-109184069D01*
X133334069Y-108944842D01*
X133522029Y-108663541D01*
X133651497Y-108350976D01*
X133717500Y-108019159D01*
X133717500Y-107680841D01*
X133651497Y-107349024D01*
X133522029Y-107036459D01*
X133334069Y-106755158D01*
X133094842Y-106515931D01*
X132813541Y-106327971D01*
X132500976Y-106198503D01*
X132169159Y-106132500D01*
X131830841Y-106132500D01*
X131499024Y-106198503D01*
X131186459Y-106327971D01*
X130905158Y-106515931D01*
X130665931Y-106755158D01*
X130477971Y-107036459D01*
X130348503Y-107349024D01*
X130282500Y-107680841D01*
X129342500Y-107680841D01*
X129342500Y-91980841D01*
X130282500Y-91980841D01*
X130282500Y-92319159D01*
X130348503Y-92650976D01*
X130477971Y-92963541D01*
X130665931Y-93244842D01*
X130905158Y-93484069D01*
X131186459Y-93672029D01*
X131499024Y-93801497D01*
X131830841Y-93867500D01*
X132169159Y-93867500D01*
X132500976Y-93801497D01*
X132813541Y-93672029D01*
X132846509Y-93650000D01*
X141681359Y-93650000D01*
X141683501Y-93671744D01*
X141683500Y-96422263D01*
X141681359Y-96444000D01*
X141683500Y-96465734D01*
X141683500Y-96465736D01*
X141689903Y-96530744D01*
X141704797Y-96579843D01*
X141715205Y-96614156D01*
X141756295Y-96691029D01*
X141774429Y-96713125D01*
X141811591Y-96758409D01*
X141828480Y-96772269D01*
X142205964Y-97149753D01*
X142205964Y-97506250D01*
X142216297Y-97611167D01*
X142246901Y-97712052D01*
X142296597Y-97805028D01*
X142363478Y-97886522D01*
X142444972Y-97953403D01*
X142537948Y-98003099D01*
X142557500Y-98009030D01*
X142557500Y-98490970D01*
X142537948Y-98496901D01*
X142444972Y-98546597D01*
X142363478Y-98613478D01*
X142296597Y-98694972D01*
X142246901Y-98787948D01*
X142216297Y-98888833D01*
X142205964Y-98993750D01*
X142205964Y-99431250D01*
X142216297Y-99536167D01*
X142246901Y-99637052D01*
X142296597Y-99730028D01*
X142363478Y-99811522D01*
X142444972Y-99878403D01*
X142537948Y-99928099D01*
X142638833Y-99958703D01*
X142743750Y-99969036D01*
X143256250Y-99969036D01*
X143361167Y-99958703D01*
X143462052Y-99928099D01*
X143555028Y-99878403D01*
X143557501Y-99876374D01*
X143557500Y-100123626D01*
X143555028Y-100121597D01*
X143462052Y-100071901D01*
X143361167Y-100041297D01*
X143256250Y-100030964D01*
X142743750Y-100030964D01*
X142638833Y-100041297D01*
X142537948Y-100071901D01*
X142444972Y-100121597D01*
X142363478Y-100188478D01*
X142296597Y-100269972D01*
X142246901Y-100362948D01*
X142216297Y-100463833D01*
X142205964Y-100568750D01*
X142205964Y-101006250D01*
X142216297Y-101111167D01*
X142246901Y-101212052D01*
X142296597Y-101305028D01*
X142363478Y-101386522D01*
X142444972Y-101453403D01*
X142537948Y-101503099D01*
X142638833Y-101533703D01*
X142743750Y-101544036D01*
X143256250Y-101544036D01*
X143361167Y-101533703D01*
X143462052Y-101503099D01*
X143555028Y-101453403D01*
X143636522Y-101386522D01*
X143703403Y-101305028D01*
X143744021Y-101229036D01*
X143799245Y-101223597D01*
X143882657Y-101198295D01*
X143959529Y-101157205D01*
X144026909Y-101101909D01*
X144040770Y-101085019D01*
X144205964Y-100919824D01*
X144205964Y-101006250D01*
X144216297Y-101111167D01*
X144246901Y-101212052D01*
X144296597Y-101305028D01*
X144363478Y-101386522D01*
X144444972Y-101453403D01*
X144537948Y-101503099D01*
X144557501Y-101509030D01*
X144557500Y-101990970D01*
X144537948Y-101996901D01*
X144444972Y-102046597D01*
X144363478Y-102113478D01*
X144296597Y-102194972D01*
X144246901Y-102287948D01*
X144244762Y-102295000D01*
X143755238Y-102295000D01*
X143753099Y-102287948D01*
X143703403Y-102194972D01*
X143636522Y-102113478D01*
X143555028Y-102046597D01*
X143462052Y-101996901D01*
X143361167Y-101966297D01*
X143256250Y-101955964D01*
X142743750Y-101955964D01*
X142638833Y-101966297D01*
X142537948Y-101996901D01*
X142444972Y-102046597D01*
X142363478Y-102113478D01*
X142296597Y-102194972D01*
X142246901Y-102287948D01*
X142216297Y-102388833D01*
X142205964Y-102493750D01*
X142205964Y-102931250D01*
X142216297Y-103036167D01*
X142246901Y-103137052D01*
X142296597Y-103230028D01*
X142363478Y-103311522D01*
X142444972Y-103378403D01*
X142537948Y-103428099D01*
X142638833Y-103458703D01*
X142743750Y-103469036D01*
X143256250Y-103469036D01*
X143361167Y-103458703D01*
X143462052Y-103428099D01*
X143555028Y-103378403D01*
X143636522Y-103311522D01*
X143703403Y-103230028D01*
X143723462Y-103192500D01*
X144276538Y-103192500D01*
X144296597Y-103230028D01*
X144363478Y-103311522D01*
X144444972Y-103378403D01*
X144537948Y-103428099D01*
X144638833Y-103458703D01*
X144743750Y-103469036D01*
X144936500Y-103469036D01*
X144936500Y-103530964D01*
X144743750Y-103530964D01*
X144638833Y-103541297D01*
X144537948Y-103571901D01*
X144444972Y-103621597D01*
X144363478Y-103688478D01*
X144299816Y-103766050D01*
X144261246Y-103740278D01*
X144148868Y-103693730D01*
X144029568Y-103670000D01*
X143907932Y-103670000D01*
X143788632Y-103693730D01*
X143678328Y-103739419D01*
X143636522Y-103688478D01*
X143555028Y-103621597D01*
X143462052Y-103571901D01*
X143361167Y-103541297D01*
X143256250Y-103530964D01*
X142743750Y-103530964D01*
X142638833Y-103541297D01*
X142537948Y-103571901D01*
X142444972Y-103621597D01*
X142363478Y-103688478D01*
X142296597Y-103769972D01*
X142246901Y-103862948D01*
X142216297Y-103963833D01*
X142205964Y-104068750D01*
X142205964Y-104506250D01*
X142216297Y-104611167D01*
X142246901Y-104712052D01*
X142296597Y-104805028D01*
X142363478Y-104886522D01*
X142444972Y-104953403D01*
X142537948Y-105003099D01*
X142557500Y-105009030D01*
X142557501Y-106440256D01*
X142555359Y-106462000D01*
X142563904Y-106548745D01*
X142589205Y-106632156D01*
X142630295Y-106709029D01*
X142639057Y-106719705D01*
X142685592Y-106776409D01*
X142702476Y-106790265D01*
X143067735Y-107155525D01*
X143081591Y-107172409D01*
X143098475Y-107186265D01*
X143148971Y-107227705D01*
X143225843Y-107268795D01*
X143309255Y-107294097D01*
X143396000Y-107302641D01*
X143417737Y-107300500D01*
X143838463Y-107300500D01*
X143848503Y-107350976D01*
X143977971Y-107663541D01*
X144165931Y-107944842D01*
X144405158Y-108184069D01*
X144686459Y-108372029D01*
X144999024Y-108501497D01*
X145330841Y-108567500D01*
X145669159Y-108567500D01*
X146000976Y-108501497D01*
X146313541Y-108372029D01*
X146594842Y-108184069D01*
X146834069Y-107944842D01*
X146906951Y-107835766D01*
X149332500Y-107835766D01*
X149332500Y-108164234D01*
X149396581Y-108486392D01*
X149522281Y-108789857D01*
X149704768Y-109062969D01*
X149937031Y-109295232D01*
X150210143Y-109477719D01*
X150513608Y-109603419D01*
X150835766Y-109667500D01*
X151164234Y-109667500D01*
X151486392Y-109603419D01*
X151789857Y-109477719D01*
X152062969Y-109295232D01*
X152295232Y-109062969D01*
X152477719Y-108789857D01*
X152603419Y-108486392D01*
X152667500Y-108164234D01*
X152667500Y-107835766D01*
X152603419Y-107513608D01*
X152477719Y-107210143D01*
X152295232Y-106937031D01*
X152062969Y-106704768D01*
X151789857Y-106522281D01*
X151486392Y-106396581D01*
X151164234Y-106332500D01*
X150835766Y-106332500D01*
X150513608Y-106396581D01*
X150210143Y-106522281D01*
X149937031Y-106704768D01*
X149704768Y-106937031D01*
X149522281Y-107210143D01*
X149396581Y-107513608D01*
X149332500Y-107835766D01*
X146906951Y-107835766D01*
X147022029Y-107663541D01*
X147151497Y-107350976D01*
X147217500Y-107019159D01*
X147217500Y-106680841D01*
X147151497Y-106349024D01*
X147022029Y-106036459D01*
X146834069Y-105755158D01*
X146642411Y-105563500D01*
X147000000Y-105563500D01*
X147012388Y-105562280D01*
X147024300Y-105558666D01*
X147035279Y-105552798D01*
X147044901Y-105544901D01*
X147052798Y-105535279D01*
X147058666Y-105524300D01*
X147062280Y-105512388D01*
X147063500Y-105500000D01*
X147063500Y-105000000D01*
X147062280Y-104987612D01*
X147058666Y-104975700D01*
X147052798Y-104964721D01*
X147044901Y-104955099D01*
X147035279Y-104947202D01*
X147024300Y-104941334D01*
X147012388Y-104937720D01*
X147000000Y-104936500D01*
X145575624Y-104936500D01*
X145636522Y-104886522D01*
X145703403Y-104805028D01*
X145753099Y-104712052D01*
X145783703Y-104611167D01*
X145794036Y-104506250D01*
X145794036Y-104475000D01*
X146455964Y-104475000D01*
X146462094Y-104537241D01*
X146480249Y-104597090D01*
X146509731Y-104652247D01*
X146549407Y-104700593D01*
X146597753Y-104740269D01*
X146652910Y-104769751D01*
X146712759Y-104787906D01*
X146775000Y-104794036D01*
X146942625Y-104792500D01*
X147022000Y-104713125D01*
X147022000Y-104190500D01*
X146536875Y-104190500D01*
X146457500Y-104269875D01*
X146455964Y-104475000D01*
X145794036Y-104475000D01*
X145794036Y-104068750D01*
X145783703Y-103963833D01*
X145753099Y-103862948D01*
X145703403Y-103769972D01*
X145636522Y-103688478D01*
X145563500Y-103628550D01*
X145563500Y-103525000D01*
X146455964Y-103525000D01*
X146457500Y-103730125D01*
X146536875Y-103809500D01*
X147022000Y-103809500D01*
X147022000Y-103286875D01*
X146942625Y-103207500D01*
X146775000Y-103205964D01*
X146712759Y-103212094D01*
X146652910Y-103230249D01*
X146597753Y-103259731D01*
X146549407Y-103299407D01*
X146509731Y-103347753D01*
X146480249Y-103402910D01*
X146462094Y-103462759D01*
X146455964Y-103525000D01*
X145563500Y-103525000D01*
X145563500Y-103371450D01*
X145636522Y-103311522D01*
X145703403Y-103230028D01*
X145753099Y-103137052D01*
X145783703Y-103036167D01*
X145794036Y-102931250D01*
X145794036Y-102493750D01*
X145783703Y-102388833D01*
X145753099Y-102287948D01*
X145703403Y-102194972D01*
X145636522Y-102113478D01*
X145563500Y-102053550D01*
X145563500Y-101446450D01*
X145636522Y-101386522D01*
X145703403Y-101305028D01*
X145753099Y-101212052D01*
X145783703Y-101111167D01*
X145785666Y-101091239D01*
X145790769Y-101085020D01*
X146082500Y-100793290D01*
X146082500Y-100840502D01*
X146107873Y-100840502D01*
X146082500Y-100865875D01*
X146087658Y-100915009D01*
X146106342Y-100974695D01*
X146127177Y-101012858D01*
X146112861Y-101039642D01*
X146089016Y-101118250D01*
X146080964Y-101200000D01*
X146080964Y-101400000D01*
X146089016Y-101481750D01*
X146112861Y-101560358D01*
X146147413Y-101625000D01*
X146112861Y-101689642D01*
X146089016Y-101768250D01*
X146080964Y-101850000D01*
X146080964Y-102050000D01*
X146089016Y-102131750D01*
X146112861Y-102210358D01*
X146151584Y-102282804D01*
X146203697Y-102346303D01*
X146267196Y-102398416D01*
X146339642Y-102437139D01*
X146418250Y-102460984D01*
X146500000Y-102469036D01*
X147775000Y-102469036D01*
X147856750Y-102460984D01*
X147935358Y-102437139D01*
X147936500Y-102436529D01*
X147936500Y-103387473D01*
X147915269Y-103347753D01*
X147875593Y-103299407D01*
X147827247Y-103259731D01*
X147772090Y-103230249D01*
X147712241Y-103212094D01*
X147650000Y-103205964D01*
X147482375Y-103207500D01*
X147403000Y-103286875D01*
X147403000Y-103809500D01*
X147423000Y-103809500D01*
X147423000Y-104190500D01*
X147403000Y-104190500D01*
X147403000Y-104713125D01*
X147482375Y-104792500D01*
X147650000Y-104794036D01*
X147712241Y-104787906D01*
X147772090Y-104769751D01*
X147827247Y-104740269D01*
X147875593Y-104700593D01*
X147915269Y-104652247D01*
X147936500Y-104612527D01*
X147936500Y-104936500D01*
X147500000Y-104936500D01*
X147487612Y-104937720D01*
X147475700Y-104941334D01*
X147464721Y-104947202D01*
X147455099Y-104955099D01*
X147447202Y-104964721D01*
X147441334Y-104975700D01*
X147437720Y-104987612D01*
X147436500Y-105000000D01*
X147436500Y-105500000D01*
X147437720Y-105512388D01*
X147441334Y-105524300D01*
X147447202Y-105535279D01*
X147455099Y-105544901D01*
X147464721Y-105552798D01*
X147475700Y-105558666D01*
X147487612Y-105562280D01*
X147500000Y-105563500D01*
X148500000Y-105563500D01*
X148512388Y-105562280D01*
X148524300Y-105558666D01*
X148535279Y-105552798D01*
X148544901Y-105544901D01*
X148552798Y-105535279D01*
X148558666Y-105524300D01*
X148562280Y-105512388D01*
X148563500Y-105500000D01*
X148563500Y-104793519D01*
X148568750Y-104794036D01*
X149006250Y-104794036D01*
X149111167Y-104783703D01*
X149212052Y-104753099D01*
X149305028Y-104703403D01*
X149386522Y-104636522D01*
X149450028Y-104559140D01*
X149533632Y-104593770D01*
X149652932Y-104617500D01*
X149774568Y-104617500D01*
X149893868Y-104593770D01*
X150006246Y-104547222D01*
X150032904Y-104529410D01*
X150046597Y-104555028D01*
X150113478Y-104636522D01*
X150194972Y-104703403D01*
X150287948Y-104753099D01*
X150388833Y-104783703D01*
X150493750Y-104794036D01*
X150931250Y-104794036D01*
X151036167Y-104783703D01*
X151137052Y-104753099D01*
X151163627Y-104738894D01*
X151195735Y-104778018D01*
X151209592Y-104794903D01*
X151226476Y-104808759D01*
X155184197Y-108766480D01*
X155182500Y-108775011D01*
X155182500Y-109004989D01*
X155227366Y-109230547D01*
X155315375Y-109443019D01*
X155443144Y-109634238D01*
X155605762Y-109796856D01*
X155796981Y-109924625D01*
X156009453Y-110012634D01*
X156235011Y-110057500D01*
X156464989Y-110057500D01*
X156690547Y-110012634D01*
X156903019Y-109924625D01*
X157094238Y-109796856D01*
X157256856Y-109634238D01*
X157384625Y-109443019D01*
X157472634Y-109230547D01*
X157517500Y-109004989D01*
X157517500Y-108775011D01*
X157472634Y-108549453D01*
X157384625Y-108336981D01*
X157256856Y-108145762D01*
X157094238Y-107983144D01*
X156903019Y-107855375D01*
X156690547Y-107767366D01*
X156464989Y-107722500D01*
X156235011Y-107722500D01*
X156009453Y-107767366D01*
X155796981Y-107855375D01*
X155633743Y-107964448D01*
X152461795Y-104792500D01*
X152478002Y-104792500D01*
X152478002Y-104713127D01*
X152557375Y-104792500D01*
X152725000Y-104794036D01*
X152787241Y-104787906D01*
X152847090Y-104769751D01*
X152902247Y-104740269D01*
X152950593Y-104700593D01*
X152990269Y-104652247D01*
X153019751Y-104597090D01*
X153037906Y-104537241D01*
X153044036Y-104475000D01*
X153042500Y-104269875D01*
X152963125Y-104190500D01*
X152478000Y-104190500D01*
X152478000Y-104210500D01*
X152097000Y-104210500D01*
X152097000Y-104190500D01*
X152077000Y-104190500D01*
X152077000Y-103809500D01*
X152097000Y-103809500D01*
X152097000Y-103286875D01*
X152478000Y-103286875D01*
X152478000Y-103809500D01*
X152963125Y-103809500D01*
X153042500Y-103730125D01*
X153044036Y-103525000D01*
X153037906Y-103462759D01*
X153019751Y-103402910D01*
X152990269Y-103347753D01*
X152950593Y-103299407D01*
X152902247Y-103259731D01*
X152847090Y-103230249D01*
X152787241Y-103212094D01*
X152725000Y-103205964D01*
X152557375Y-103207500D01*
X152478000Y-103286875D01*
X152097000Y-103286875D01*
X152017625Y-103207500D01*
X151850000Y-103205964D01*
X151835705Y-103207372D01*
X151821526Y-103195736D01*
X151554269Y-102928480D01*
X151540409Y-102911591D01*
X151473029Y-102856295D01*
X151396157Y-102815205D01*
X151312745Y-102789903D01*
X151247737Y-102783500D01*
X151247734Y-102783500D01*
X151226000Y-102781359D01*
X151204266Y-102783500D01*
X149192500Y-102783500D01*
X149192500Y-102271733D01*
X149194641Y-102249999D01*
X149191946Y-102222641D01*
X149186356Y-102165875D01*
X151807500Y-102165875D01*
X151812658Y-102215009D01*
X151831342Y-102274695D01*
X151861311Y-102329589D01*
X151901414Y-102377582D01*
X151950109Y-102416828D01*
X152005525Y-102445820D01*
X152065533Y-102463445D01*
X152127825Y-102469023D01*
X152592625Y-102467500D01*
X152672000Y-102388125D01*
X152672000Y-102086500D01*
X153053000Y-102086500D01*
X153053000Y-102388125D01*
X153132375Y-102467500D01*
X153597175Y-102469023D01*
X153659467Y-102463445D01*
X153719475Y-102445820D01*
X153774891Y-102416828D01*
X153823586Y-102377582D01*
X153863689Y-102329589D01*
X153893658Y-102274695D01*
X153912342Y-102215009D01*
X153917500Y-102165875D01*
X153838125Y-102086500D01*
X153053000Y-102086500D01*
X152672000Y-102086500D01*
X151886875Y-102086500D01*
X151807500Y-102165875D01*
X149186356Y-102165875D01*
X149186097Y-102163255D01*
X149160795Y-102079843D01*
X149131496Y-102025029D01*
X149119705Y-102002970D01*
X149078265Y-101952475D01*
X149064409Y-101935591D01*
X149047526Y-101921736D01*
X148778269Y-101652480D01*
X148764409Y-101635591D01*
X148697029Y-101580295D01*
X148620157Y-101539205D01*
X148563500Y-101522019D01*
X148563500Y-99250000D01*
X148562280Y-99237612D01*
X148558666Y-99225700D01*
X148552798Y-99214721D01*
X148544901Y-99205099D01*
X148535279Y-99197202D01*
X148524300Y-99191334D01*
X148512388Y-99187720D01*
X148500000Y-99186500D01*
X148187782Y-99186500D01*
X148185984Y-99168250D01*
X148162139Y-99089642D01*
X148127587Y-99025000D01*
X148162139Y-98960358D01*
X148185984Y-98881750D01*
X148194036Y-98800000D01*
X148194036Y-98672887D01*
X148232382Y-98688770D01*
X148351682Y-98712500D01*
X148473318Y-98712500D01*
X148592618Y-98688770D01*
X148704996Y-98642222D01*
X148806133Y-98574644D01*
X148892144Y-98488633D01*
X148959722Y-98387496D01*
X149006270Y-98275118D01*
X149030000Y-98155818D01*
X149030000Y-98034182D01*
X149006270Y-97914882D01*
X148959722Y-97802504D01*
X148892144Y-97701367D01*
X148882787Y-97692010D01*
X151355349Y-97692010D01*
X151357491Y-97713754D01*
X151357490Y-98686275D01*
X151355349Y-98708010D01*
X151357490Y-98729744D01*
X151357490Y-98729746D01*
X151363893Y-98794754D01*
X151386765Y-98870156D01*
X151389195Y-98878166D01*
X151430285Y-98955039D01*
X151447466Y-98975974D01*
X151485581Y-99022419D01*
X151552961Y-99077715D01*
X151629833Y-99118805D01*
X151713245Y-99144107D01*
X151799990Y-99152651D01*
X151819326Y-99150747D01*
X151814016Y-99168250D01*
X151805964Y-99250000D01*
X151805964Y-99450000D01*
X151814016Y-99531750D01*
X151837861Y-99610358D01*
X151872413Y-99675000D01*
X151837861Y-99739642D01*
X151814016Y-99818250D01*
X151805964Y-99900000D01*
X151805964Y-100100000D01*
X151814016Y-100181750D01*
X151837861Y-100260358D01*
X151872413Y-100325000D01*
X151837861Y-100389642D01*
X151814016Y-100468250D01*
X151805964Y-100550000D01*
X151805964Y-100750000D01*
X151814016Y-100831750D01*
X151837861Y-100910358D01*
X151872413Y-100975000D01*
X151837861Y-101039642D01*
X151814016Y-101118250D01*
X151805964Y-101200000D01*
X151805964Y-101400000D01*
X151814016Y-101481750D01*
X151837861Y-101560358D01*
X151852177Y-101587142D01*
X151831342Y-101625305D01*
X151812658Y-101684991D01*
X151807500Y-101734125D01*
X151886875Y-101813500D01*
X152168794Y-101813500D01*
X152225000Y-101819036D01*
X153500000Y-101819036D01*
X153556206Y-101813500D01*
X153838125Y-101813500D01*
X153909125Y-101742500D01*
X154418711Y-101742500D01*
X154637500Y-101961290D01*
X154637501Y-103534256D01*
X154635359Y-103556000D01*
X154643904Y-103642745D01*
X154669205Y-103726156D01*
X154710295Y-103803029D01*
X154750702Y-103852265D01*
X154765592Y-103870409D01*
X154782477Y-103884266D01*
X155005726Y-104107514D01*
X155019591Y-104124409D01*
X155086971Y-104179705D01*
X155163843Y-104220795D01*
X155247255Y-104246097D01*
X155267782Y-104248119D01*
X155315375Y-104363019D01*
X155443144Y-104554238D01*
X155605762Y-104716856D01*
X155796981Y-104844625D01*
X156009453Y-104932634D01*
X156235011Y-104977500D01*
X156464989Y-104977500D01*
X156690547Y-104932634D01*
X156903019Y-104844625D01*
X157094238Y-104716856D01*
X157256856Y-104554238D01*
X157384625Y-104363019D01*
X157431500Y-104249853D01*
X157431500Y-105907500D01*
X157430404Y-105907500D01*
X157384625Y-105796981D01*
X157256856Y-105605762D01*
X157094238Y-105443144D01*
X156903019Y-105315375D01*
X156690547Y-105227366D01*
X156464989Y-105182500D01*
X156235011Y-105182500D01*
X156009453Y-105227366D01*
X155796981Y-105315375D01*
X155605762Y-105443144D01*
X155443144Y-105605762D01*
X155315375Y-105796981D01*
X155227366Y-106009453D01*
X155182500Y-106235011D01*
X155182500Y-106464989D01*
X155227366Y-106690547D01*
X155315375Y-106903019D01*
X155443144Y-107094238D01*
X155605762Y-107256856D01*
X155796981Y-107384625D01*
X156009453Y-107472634D01*
X156235011Y-107517500D01*
X156464989Y-107517500D01*
X156690547Y-107472634D01*
X156903019Y-107384625D01*
X157094238Y-107256856D01*
X157256856Y-107094238D01*
X157384625Y-106903019D01*
X157430404Y-106792500D01*
X157598266Y-106792500D01*
X157620000Y-106794641D01*
X157641734Y-106792500D01*
X157641737Y-106792500D01*
X157706745Y-106786097D01*
X157790157Y-106760795D01*
X157867029Y-106719705D01*
X157934409Y-106664409D01*
X157948270Y-106647519D01*
X158171516Y-106424273D01*
X158188409Y-106410409D01*
X158243705Y-106343029D01*
X158284795Y-106266157D01*
X158310097Y-106182745D01*
X158316500Y-106117737D01*
X158316500Y-106117735D01*
X158318641Y-106096001D01*
X158316500Y-106074267D01*
X158316500Y-95449733D01*
X158318641Y-95427999D01*
X158314330Y-95384235D01*
X158310097Y-95341255D01*
X158284795Y-95257843D01*
X158243705Y-95180971D01*
X158188409Y-95113591D01*
X158171519Y-95099730D01*
X157694270Y-94622481D01*
X157680409Y-94605591D01*
X157613029Y-94550295D01*
X157536157Y-94509205D01*
X157452745Y-94483903D01*
X157387737Y-94477500D01*
X157387734Y-94477500D01*
X157366000Y-94475359D01*
X157344266Y-94477500D01*
X157173594Y-94477500D01*
X157256856Y-94394238D01*
X157384625Y-94203019D01*
X157472634Y-93990547D01*
X157517500Y-93764989D01*
X157517500Y-93535011D01*
X157472634Y-93309453D01*
X157384625Y-93096981D01*
X157256856Y-92905762D01*
X157094238Y-92743144D01*
X156903019Y-92615375D01*
X156690547Y-92527366D01*
X156464989Y-92482500D01*
X156235011Y-92482500D01*
X156009453Y-92527366D01*
X155796981Y-92615375D01*
X155605762Y-92743144D01*
X155443144Y-92905762D01*
X155315375Y-93096981D01*
X155227366Y-93309453D01*
X155182500Y-93535011D01*
X155182500Y-93764989D01*
X155227366Y-93990547D01*
X155315375Y-94203019D01*
X155443144Y-94394238D01*
X155526406Y-94477500D01*
X152561733Y-94477500D01*
X152539999Y-94475359D01*
X152518265Y-94477500D01*
X152518263Y-94477500D01*
X152453255Y-94483903D01*
X152369843Y-94509205D01*
X152292971Y-94550295D01*
X152225591Y-94605591D01*
X152211726Y-94622486D01*
X151988481Y-94845730D01*
X151971591Y-94859591D01*
X151939889Y-94898221D01*
X151916295Y-94926971D01*
X151900798Y-94955964D01*
X151875205Y-95003844D01*
X151849903Y-95087256D01*
X151843500Y-95152263D01*
X151841359Y-95174000D01*
X151843500Y-95195735D01*
X151843500Y-95257296D01*
X151769972Y-95296597D01*
X151688478Y-95363478D01*
X151621597Y-95444972D01*
X151571901Y-95537948D01*
X151541297Y-95638833D01*
X151530964Y-95743750D01*
X151530964Y-96256250D01*
X151541297Y-96361167D01*
X151571901Y-96462052D01*
X151621597Y-96555028D01*
X151688478Y-96636522D01*
X151769972Y-96703403D01*
X151843500Y-96742704D01*
X151843500Y-97022710D01*
X151502466Y-97363745D01*
X151485582Y-97377601D01*
X151471726Y-97394485D01*
X151471725Y-97394486D01*
X151430285Y-97444981D01*
X151389195Y-97521854D01*
X151363894Y-97605265D01*
X151355349Y-97692010D01*
X148882787Y-97692010D01*
X148806133Y-97615356D01*
X148704996Y-97547778D01*
X148592618Y-97501230D01*
X148473318Y-97477500D01*
X148351682Y-97477500D01*
X148232382Y-97501230D01*
X148120004Y-97547778D01*
X148030624Y-97607500D01*
X148015013Y-97607500D01*
X148007804Y-97601584D01*
X147935358Y-97562861D01*
X147856750Y-97539016D01*
X147775000Y-97530964D01*
X146500000Y-97530964D01*
X146442500Y-97536627D01*
X146442500Y-96771733D01*
X146444641Y-96749999D01*
X146440051Y-96703403D01*
X146436097Y-96663255D01*
X146410795Y-96579843D01*
X146369705Y-96502971D01*
X146314409Y-96435591D01*
X146297514Y-96421726D01*
X146186714Y-96310925D01*
X146210118Y-96306270D01*
X146322496Y-96259722D01*
X146423633Y-96192144D01*
X146457500Y-96158277D01*
X146457500Y-96190502D01*
X146536873Y-96190502D01*
X146457500Y-96269875D01*
X146455964Y-96475000D01*
X146462094Y-96537241D01*
X146480249Y-96597090D01*
X146509731Y-96652247D01*
X146549407Y-96700593D01*
X146597753Y-96740269D01*
X146652910Y-96769751D01*
X146712759Y-96787906D01*
X146775000Y-96794036D01*
X146942625Y-96792500D01*
X147022000Y-96713125D01*
X147022000Y-96190500D01*
X147403000Y-96190500D01*
X147403000Y-96713125D01*
X147482375Y-96792500D01*
X147650000Y-96794036D01*
X147712241Y-96787906D01*
X147772090Y-96769751D01*
X147827247Y-96740269D01*
X147875593Y-96700593D01*
X147915269Y-96652247D01*
X147944751Y-96597090D01*
X147962906Y-96537241D01*
X147969036Y-96475000D01*
X147967500Y-96269875D01*
X147888125Y-96190500D01*
X147403000Y-96190500D01*
X147022000Y-96190500D01*
X147002000Y-96190500D01*
X147002000Y-95809500D01*
X147022000Y-95809500D01*
X147022000Y-95286875D01*
X147403000Y-95286875D01*
X147403000Y-95809500D01*
X147888125Y-95809500D01*
X147953875Y-95743750D01*
X148030964Y-95743750D01*
X148030964Y-96256250D01*
X148041297Y-96361167D01*
X148071901Y-96462052D01*
X148121597Y-96555028D01*
X148188478Y-96636522D01*
X148269972Y-96703403D01*
X148362948Y-96753099D01*
X148463833Y-96783703D01*
X148568750Y-96794036D01*
X149006250Y-96794036D01*
X149111167Y-96783703D01*
X149212052Y-96753099D01*
X149305028Y-96703403D01*
X149386522Y-96636522D01*
X149453403Y-96555028D01*
X149503099Y-96462052D01*
X149509030Y-96442500D01*
X149990970Y-96442500D01*
X149996901Y-96462052D01*
X150046597Y-96555028D01*
X150113478Y-96636522D01*
X150194972Y-96703403D01*
X150287948Y-96753099D01*
X150388833Y-96783703D01*
X150493750Y-96794036D01*
X150931250Y-96794036D01*
X151036167Y-96783703D01*
X151137052Y-96753099D01*
X151230028Y-96703403D01*
X151311522Y-96636522D01*
X151378403Y-96555028D01*
X151428099Y-96462052D01*
X151458703Y-96361167D01*
X151469036Y-96256250D01*
X151469036Y-95743750D01*
X151458703Y-95638833D01*
X151428099Y-95537948D01*
X151378403Y-95444972D01*
X151311522Y-95363478D01*
X151230028Y-95296597D01*
X151137052Y-95246901D01*
X151036167Y-95216297D01*
X150931250Y-95205964D01*
X150493750Y-95205964D01*
X150388833Y-95216297D01*
X150287948Y-95246901D01*
X150194972Y-95296597D01*
X150113478Y-95363478D01*
X150046597Y-95444972D01*
X149996901Y-95537948D01*
X149990970Y-95557500D01*
X149509030Y-95557500D01*
X149503099Y-95537948D01*
X149453403Y-95444972D01*
X149386522Y-95363478D01*
X149305028Y-95296597D01*
X149212052Y-95246901D01*
X149111167Y-95216297D01*
X149006250Y-95205964D01*
X148568750Y-95205964D01*
X148463833Y-95216297D01*
X148362948Y-95246901D01*
X148269972Y-95296597D01*
X148188478Y-95363478D01*
X148121597Y-95444972D01*
X148071901Y-95537948D01*
X148041297Y-95638833D01*
X148030964Y-95743750D01*
X147953875Y-95743750D01*
X147967500Y-95730125D01*
X147969036Y-95525000D01*
X147962906Y-95462759D01*
X147944751Y-95402910D01*
X147915269Y-95347753D01*
X147875593Y-95299407D01*
X147827247Y-95259731D01*
X147772090Y-95230249D01*
X147712241Y-95212094D01*
X147650000Y-95205964D01*
X147482375Y-95207500D01*
X147403000Y-95286875D01*
X147022000Y-95286875D01*
X146942625Y-95207500D01*
X146775000Y-95205964D01*
X146712759Y-95212094D01*
X146652910Y-95230249D01*
X146597753Y-95259731D01*
X146549407Y-95299407D01*
X146520322Y-95334848D01*
X146509644Y-95318867D01*
X146423633Y-95232856D01*
X146322496Y-95165278D01*
X146210118Y-95118730D01*
X146090818Y-95095000D01*
X145969182Y-95095000D01*
X145849882Y-95118730D01*
X145737504Y-95165278D01*
X145699741Y-95190510D01*
X145636522Y-95113478D01*
X145555028Y-95046597D01*
X145462052Y-94996901D01*
X145361167Y-94966297D01*
X145256250Y-94955964D01*
X144743750Y-94955964D01*
X144638833Y-94966297D01*
X144537948Y-94996901D01*
X144444972Y-95046597D01*
X144363478Y-95113478D01*
X144296597Y-95194972D01*
X144246901Y-95287948D01*
X144216297Y-95388833D01*
X144205964Y-95493750D01*
X144205964Y-95755175D01*
X143865769Y-95414980D01*
X143851909Y-95398091D01*
X143784529Y-95342795D01*
X143766874Y-95333358D01*
X143753099Y-95287948D01*
X143703403Y-95194972D01*
X143636522Y-95113478D01*
X143555028Y-95046597D01*
X143462052Y-94996901D01*
X143361167Y-94966297D01*
X143256250Y-94955964D01*
X142743750Y-94955964D01*
X142638833Y-94966297D01*
X142568500Y-94987633D01*
X142568500Y-93833289D01*
X142817289Y-93584500D01*
X143835280Y-93584500D01*
X143848503Y-93650976D01*
X143977971Y-93963541D01*
X144165931Y-94244842D01*
X144405158Y-94484069D01*
X144686459Y-94672029D01*
X144999024Y-94801497D01*
X145330841Y-94867500D01*
X145669159Y-94867500D01*
X146000976Y-94801497D01*
X146313541Y-94672029D01*
X146594842Y-94484069D01*
X146834069Y-94244842D01*
X147022029Y-93963541D01*
X147151497Y-93650976D01*
X147217500Y-93319159D01*
X147217500Y-92980841D01*
X147151497Y-92649024D01*
X147022029Y-92336459D01*
X146834069Y-92055158D01*
X146614677Y-91835766D01*
X149332500Y-91835766D01*
X149332500Y-92164234D01*
X149396581Y-92486392D01*
X149522281Y-92789857D01*
X149704768Y-93062969D01*
X149937031Y-93295232D01*
X150210143Y-93477719D01*
X150513608Y-93603419D01*
X150835766Y-93667500D01*
X151164234Y-93667500D01*
X151486392Y-93603419D01*
X151789857Y-93477719D01*
X152062969Y-93295232D01*
X152295232Y-93062969D01*
X152477719Y-92789857D01*
X152603419Y-92486392D01*
X152667500Y-92164234D01*
X152667500Y-91960000D01*
X155180964Y-91960000D01*
X155187094Y-92022241D01*
X155205249Y-92082090D01*
X155234731Y-92137247D01*
X155274407Y-92185593D01*
X155322753Y-92225269D01*
X155377910Y-92254751D01*
X155437759Y-92272906D01*
X155500000Y-92279036D01*
X156080125Y-92277500D01*
X156159500Y-92198125D01*
X156159500Y-91300500D01*
X156540500Y-91300500D01*
X156540500Y-92198125D01*
X156619875Y-92277500D01*
X157200000Y-92279036D01*
X157262241Y-92272906D01*
X157322090Y-92254751D01*
X157377247Y-92225269D01*
X157425593Y-92185593D01*
X157465269Y-92137247D01*
X157494751Y-92082090D01*
X157512906Y-92022241D01*
X157519036Y-91960000D01*
X157517500Y-91379875D01*
X157438125Y-91300500D01*
X156540500Y-91300500D01*
X156159500Y-91300500D01*
X155261875Y-91300500D01*
X155182500Y-91379875D01*
X155180964Y-91960000D01*
X152667500Y-91960000D01*
X152667500Y-91835766D01*
X152603419Y-91513608D01*
X152477719Y-91210143D01*
X152295232Y-90937031D01*
X152062969Y-90704768D01*
X151789857Y-90522281D01*
X151486392Y-90396581D01*
X151164234Y-90332500D01*
X150835766Y-90332500D01*
X150513608Y-90396581D01*
X150210143Y-90522281D01*
X149937031Y-90704768D01*
X149704768Y-90937031D01*
X149522281Y-91210143D01*
X149396581Y-91513608D01*
X149332500Y-91835766D01*
X146614677Y-91835766D01*
X146594842Y-91815931D01*
X146313541Y-91627971D01*
X146000976Y-91498503D01*
X145669159Y-91432500D01*
X145330841Y-91432500D01*
X144999024Y-91498503D01*
X144686459Y-91627971D01*
X144405158Y-91815931D01*
X144165931Y-92055158D01*
X143977971Y-92336459D01*
X143848503Y-92649024D01*
X143838463Y-92699500D01*
X142655733Y-92699500D01*
X142633999Y-92697359D01*
X142612265Y-92699500D01*
X142612263Y-92699500D01*
X142547255Y-92705903D01*
X142463843Y-92731205D01*
X142386971Y-92772295D01*
X142319591Y-92827591D01*
X142305730Y-92844481D01*
X141828476Y-93321735D01*
X141811592Y-93335591D01*
X141797736Y-93352475D01*
X141797735Y-93352476D01*
X141756295Y-93402971D01*
X141715205Y-93479844D01*
X141689904Y-93563255D01*
X141681359Y-93650000D01*
X132846509Y-93650000D01*
X133094842Y-93484069D01*
X133334069Y-93244842D01*
X133522029Y-92963541D01*
X133651497Y-92650976D01*
X133717500Y-92319159D01*
X133717500Y-91980841D01*
X133651497Y-91649024D01*
X133522029Y-91336459D01*
X133334069Y-91055158D01*
X133094842Y-90815931D01*
X132813541Y-90627971D01*
X132500976Y-90498503D01*
X132169159Y-90432500D01*
X131830841Y-90432500D01*
X131499024Y-90498503D01*
X131186459Y-90627971D01*
X130905158Y-90815931D01*
X130665931Y-91055158D01*
X130477971Y-91336459D01*
X130348503Y-91649024D01*
X130282500Y-91980841D01*
X129342500Y-91980841D01*
X129342500Y-90016747D01*
X129356633Y-89872612D01*
X129393629Y-89750074D01*
X129453724Y-89637052D01*
X129534622Y-89537860D01*
X129633249Y-89456269D01*
X129745844Y-89395390D01*
X129868121Y-89357539D01*
X130011201Y-89342500D01*
X135091419Y-89342500D01*
X135094598Y-89370837D01*
G37*
%TD.AperFunction*%
D14*
X147348000Y-100780964D02*
X146927000Y-100780964D01*
X146927000Y-100519036D01*
X147348000Y-100519036D01*
X147348000Y-100780964D01*
%TA.AperFunction,Conductor*%
D17*
G36*
X147348000Y-100780964D02*
G01*
X146927000Y-100780964D01*
X146927000Y-100519036D01*
X147348000Y-100519036D01*
X147348000Y-100780964D01*
G37*
%TD.AperFunction*%
%TD*%
M02*
